<?xml version="1.0" encoding="UTF-8"?>
<svg xmlns="http://www.w3.org/2000/svg" xmlns:xlink="http://www.w3.org/1999/xlink" width="154px" height="94px" viewBox="0 0 154 94" version="1.1">
<defs>
<clipPath id="clip1">
  <path d="M 0.0351562 0 L 93.824219 0 L 93.824219 94 L 0.0351562 94 Z M 0.0351562 0 "/>
</clipPath>
<clipPath id="clip2">
  <path d="M 6 0 L 21.890625 0 L 21.890625 15.738281 L 6 15.738281 Z M 6 0 "/>
</clipPath>
<clipPath id="clip3">
  <path d="M 72 0 L 87.890625 0 L 87.890625 15.738281 L 72 15.738281 Z M 72 0 "/>
</clipPath>
<clipPath id="clip4">
  <path d="M 76.457031 8.160156 L 153.964844 8.160156 L 153.964844 85.839844 L 76.457031 85.839844 Z M 76.457031 8.160156 "/>
</clipPath>
</defs>
<g id="surface1">
<g clip-path="url(#clip1)" clip-rule="nonzero">
<path style=" stroke:none;fill-rule:nonzero;fill:rgb(19.607843%,88.627451%,66.27451%);fill-opacity:1;" d="M 93.824219 47 C 93.824219 47.769531 93.804688 48.539062 93.769531 49.304688 C 93.730469 50.074219 93.675781 50.84375 93.597656 51.605469 C 93.523438 52.371094 93.429688 53.136719 93.316406 53.894531 C 93.207031 54.65625 93.074219 55.414062 92.925781 56.167969 C 92.773438 56.921875 92.605469 57.671875 92.421875 58.421875 C 92.234375 59.164062 92.027344 59.90625 91.804688 60.644531 C 91.582031 61.378906 91.34375 62.109375 91.085938 62.832031 C 90.824219 63.558594 90.550781 64.277344 90.257812 64.988281 C 89.960938 65.695312 89.652344 66.398438 89.324219 67.09375 C 88.996094 67.789062 88.648438 68.476562 88.289062 69.15625 C 87.925781 69.832031 87.546875 70.503906 87.152344 71.164062 C 86.757812 71.824219 86.347656 72.472656 85.921875 73.113281 C 85.496094 73.75 85.054688 74.378906 84.597656 74.996094 C 84.140625 75.617188 83.667969 76.222656 83.179688 76.816406 C 82.695312 77.410156 82.195312 77.992188 81.679688 78.5625 C 81.164062 79.132812 80.632812 79.691406 80.089844 80.234375 C 79.546875 80.777344 78.992188 81.308594 78.421875 81.824219 C 77.855469 82.339844 77.273438 82.84375 76.679688 83.332031 C 76.085938 83.820312 75.484375 84.292969 74.867188 84.75 C 74.25 85.210938 73.621094 85.652344 72.984375 86.078125 C 72.347656 86.507812 71.699219 86.917969 71.039062 87.3125 C 70.382812 87.710938 69.714844 88.085938 69.039062 88.449219 C 68.359375 88.8125 67.675781 89.160156 66.980469 89.488281 C 66.289062 89.816406 65.585938 90.128906 64.878906 90.421875 C 64.167969 90.71875 63.453125 90.992188 62.730469 91.253906 C 62.007812 91.511719 61.277344 91.753906 60.542969 91.976562 C 59.808594 92.199219 59.070312 92.40625 58.324219 92.589844 C 57.582031 92.777344 56.832031 92.945312 56.078125 93.097656 C 55.328125 93.246094 54.570312 93.378906 53.8125 93.492188 C 53.054688 93.605469 52.289062 93.699219 51.527344 93.773438 C 50.765625 93.847656 50 93.90625 49.230469 93.941406 C 48.464844 93.980469 47.699219 94 46.929688 94 C 46.164062 94 45.398438 93.980469 44.628906 93.941406 C 43.863281 93.90625 43.097656 93.847656 42.335938 93.773438 C 41.570312 93.699219 40.808594 93.605469 40.050781 93.492188 C 39.289062 93.378906 38.535156 93.246094 37.78125 93.097656 C 37.03125 92.945312 36.28125 92.777344 35.535156 92.589844 C 34.792969 92.40625 34.054688 92.199219 33.316406 91.976562 C 32.582031 91.753906 31.855469 91.511719 31.132812 91.253906 C 30.410156 90.992188 29.695312 90.71875 28.984375 90.421875 C 28.277344 90.128906 27.574219 89.816406 26.878906 89.488281 C 26.1875 89.160156 25.5 88.8125 24.824219 88.449219 C 24.148438 88.085938 23.480469 87.710938 22.820312 87.3125 C 22.164062 86.917969 21.515625 86.507812 20.878906 86.078125 C 20.238281 85.652344 19.613281 85.210938 18.996094 84.75 C 18.378906 84.292969 17.773438 83.820312 17.179688 83.332031 C 16.589844 82.84375 16.007812 82.339844 15.4375 81.824219 C 14.871094 81.308594 14.3125 80.777344 13.773438 80.234375 C 13.230469 79.691406 12.699219 79.132812 12.183594 78.5625 C 11.667969 77.992188 11.167969 77.410156 10.679688 76.816406 C 10.195312 76.222656 9.722656 75.617188 9.265625 74.996094 C 8.808594 74.378906 8.367188 73.75 7.9375 73.113281 C 7.511719 72.472656 7.101562 71.824219 6.707031 71.164062 C 6.3125 70.503906 5.933594 69.832031 5.574219 69.15625 C 5.210938 68.476562 4.867188 67.789062 4.539062 67.09375 C 4.210938 66.398438 3.898438 65.695312 3.605469 64.988281 C 3.3125 64.277344 3.035156 63.558594 2.777344 62.832031 C 2.519531 62.109375 2.277344 61.378906 2.054688 60.644531 C 1.832031 59.90625 1.628906 59.164062 1.441406 58.421875 C 1.253906 57.671875 1.085938 56.921875 0.9375 56.167969 C 0.785156 55.414062 0.65625 54.65625 0.542969 53.894531 C 0.429688 53.136719 0.335938 52.371094 0.261719 51.605469 C 0.1875 50.84375 0.128906 50.074219 0.09375 49.304688 C 0.0546875 48.539062 0.0351562 47.769531 0.0351562 47 C 0.0351562 46.230469 0.0546875 45.460938 0.09375 44.695312 C 0.128906 43.925781 0.1875 43.15625 0.261719 42.394531 C 0.335938 41.628906 0.429688 40.863281 0.542969 40.105469 C 0.65625 39.34375 0.785156 38.585938 0.9375 37.832031 C 1.085938 37.078125 1.253906 36.328125 1.441406 35.578125 C 1.628906 34.835938 1.832031 34.09375 2.054688 33.355469 C 2.277344 32.621094 2.519531 31.890625 2.777344 31.167969 C 3.035156 30.441406 3.3125 29.722656 3.605469 29.011719 C 3.898438 28.304688 4.210938 27.601562 4.539062 26.90625 C 4.867188 26.210938 5.210938 25.523438 5.574219 24.84375 C 5.933594 24.167969 6.3125 23.496094 6.707031 22.835938 C 7.101562 22.175781 7.511719 21.527344 7.9375 20.886719 C 8.367188 20.25 8.808594 19.621094 9.265625 19.003906 C 9.722656 18.382812 10.195312 17.777344 10.679688 17.183594 C 11.167969 16.589844 11.667969 16.007812 12.183594 15.4375 C 12.699219 14.867188 13.230469 14.308594 13.773438 13.765625 C 14.3125 13.222656 14.871094 12.691406 15.4375 12.175781 C 16.007812 11.660156 16.589844 11.15625 17.179688 10.667969 C 17.773438 10.179688 18.378906 9.707031 18.996094 9.25 C 19.613281 8.789062 20.238281 8.347656 20.878906 7.921875 C 21.515625 7.492188 22.164062 7.082031 22.820312 6.6875 C 23.480469 6.289062 24.148438 5.914062 24.824219 5.550781 C 25.5 5.1875 26.1875 4.839844 26.878906 4.511719 C 27.574219 4.183594 28.277344 3.871094 28.984375 3.578125 C 29.695312 3.28125 30.410156 3.007812 31.132812 2.746094 C 31.855469 2.488281 32.582031 2.246094 33.316406 2.023438 C 34.054688 1.800781 34.792969 1.59375 35.535156 1.410156 C 36.28125 1.222656 37.03125 1.054688 37.78125 0.902344 C 38.535156 0.753906 39.289062 0.621094 40.050781 0.507812 C 40.808594 0.394531 41.570312 0.300781 42.335938 0.226562 C 43.097656 0.152344 43.863281 0.09375 44.628906 0.0585938 C 45.398438 0.0195312 46.164062 0 46.929688 0 C 47.699219 0 48.464844 0.0195312 49.230469 0.0585938 C 50 0.09375 50.765625 0.152344 51.527344 0.226562 C 52.289062 0.300781 53.054688 0.394531 53.8125 0.507812 C 54.570312 0.621094 55.328125 0.753906 56.078125 0.902344 C 56.832031 1.054688 57.582031 1.222656 58.324219 1.410156 C 59.070312 1.59375 59.808594 1.800781 60.542969 2.023438 C 61.277344 2.246094 62.007812 2.488281 62.730469 2.746094 C 63.453125 3.007812 64.167969 3.28125 64.878906 3.578125 C 65.585938 3.871094 66.289062 4.183594 66.980469 4.511719 C 67.675781 4.839844 68.359375 5.1875 69.039062 5.550781 C 69.714844 5.914062 70.382812 6.289062 71.039062 6.6875 C 71.699219 7.082031 72.347656 7.492188 72.984375 7.921875 C 73.621094 8.347656 74.25 8.789062 74.867188 9.25 C 75.484375 9.707031 76.085938 10.179688 76.679688 10.667969 C 77.273438 11.15625 77.855469 11.660156 78.421875 12.175781 C 78.992188 12.691406 79.546875 13.222656 80.089844 13.765625 C 80.632812 14.308594 81.164062 14.867188 81.679688 15.4375 C 82.195312 16.007812 82.695312 16.589844 83.179688 17.183594 C 83.667969 17.777344 84.140625 18.382812 84.597656 19.003906 C 85.054688 19.621094 85.496094 20.25 85.921875 20.886719 C 86.347656 21.527344 86.757812 22.175781 87.152344 22.835938 C 87.546875 23.496094 87.925781 24.167969 88.289062 24.84375 C 88.648438 25.523438 88.996094 26.210938 89.324219 26.90625 C 89.652344 27.601562 89.960938 28.304688 90.257812 29.011719 C 90.550781 29.722656 90.824219 30.441406 91.085938 31.167969 C 91.34375 31.890625 91.582031 32.621094 91.804688 33.355469 C 92.027344 34.09375 92.234375 34.835938 92.421875 35.578125 C 92.605469 36.328125 92.773438 37.078125 92.925781 37.832031 C 93.074219 38.585938 93.207031 39.34375 93.316406 40.105469 C 93.429688 40.863281 93.523438 41.628906 93.597656 42.394531 C 93.675781 43.15625 93.730469 43.925781 93.769531 44.695312 C 93.804688 45.460938 93.824219 46.230469 93.824219 47 Z M 93.824219 47 "/>
</g>
<path style=" stroke:none;fill-rule:nonzero;fill:rgb(100%,100%,100%);fill-opacity:1;" d="M 59.867188 44.644531 C 59.867188 44.988281 59.851562 45.335938 59.816406 45.683594 C 59.78125 46.027344 59.730469 46.371094 59.664062 46.710938 C 59.597656 47.050781 59.511719 47.390625 59.414062 47.722656 C 59.3125 48.054688 59.195312 48.378906 59.0625 48.703125 C 58.929688 49.023438 58.78125 49.335938 58.617188 49.644531 C 58.453125 49.949219 58.277344 50.246094 58.082031 50.535156 C 57.890625 50.824219 57.6875 51.105469 57.464844 51.371094 C 57.246094 51.640625 57.011719 51.898438 56.765625 52.144531 C 56.523438 52.390625 56.265625 52.621094 56 52.84375 C 55.730469 53.0625 55.453125 53.269531 55.164062 53.460938 C 54.875 53.65625 54.578125 53.832031 54.273438 54 C 53.96875 54.160156 53.65625 54.308594 53.332031 54.441406 C 53.011719 54.574219 52.6875 54.691406 52.355469 54.792969 C 52.023438 54.894531 51.6875 54.976562 51.347656 55.046875 C 51.007812 55.113281 50.664062 55.164062 50.320312 55.199219 C 49.976562 55.234375 49.628906 55.25 49.28125 55.25 C 48.9375 55.25 48.589844 55.234375 48.246094 55.199219 C 47.902344 55.164062 47.558594 55.113281 47.21875 55.046875 C 46.878906 54.976562 46.542969 54.894531 46.210938 54.792969 C 45.878906 54.691406 45.554688 54.574219 45.234375 54.441406 C 44.914062 54.308594 44.597656 54.160156 44.292969 54 C 43.988281 53.832031 43.691406 53.65625 43.402344 53.460938 C 43.113281 53.269531 42.835938 53.0625 42.570312 52.84375 C 42.300781 52.621094 42.042969 52.390625 41.800781 52.144531 C 41.554688 51.898438 41.320312 51.640625 41.101562 51.371094 C 40.882812 51.105469 40.675781 50.824219 40.484375 50.535156 C 40.289062 50.246094 40.113281 49.949219 39.949219 49.644531 C 39.785156 49.335938 39.636719 49.023438 39.503906 48.703125 C 39.371094 48.378906 39.253906 48.054688 39.15625 47.722656 C 39.054688 47.390625 38.96875 47.050781 38.902344 46.710938 C 38.835938 46.371094 38.785156 46.027344 38.75 45.683594 C 38.714844 45.335938 38.699219 44.988281 38.699219 44.644531 C 38.699219 44.292969 38.714844 43.949219 38.75 43.601562 C 38.785156 43.257812 38.835938 42.914062 38.902344 42.570312 C 38.96875 42.230469 39.054688 41.894531 39.15625 41.5625 C 39.253906 41.230469 39.371094 40.902344 39.503906 40.582031 C 39.636719 40.261719 39.785156 39.949219 39.949219 39.640625 C 40.113281 39.335938 40.289062 39.039062 40.484375 38.75 C 40.675781 38.460938 40.882812 38.179688 41.101562 37.910156 C 41.320312 37.644531 41.554688 37.386719 41.800781 37.140625 C 42.042969 36.894531 42.300781 36.660156 42.570312 36.441406 C 42.835938 36.222656 43.113281 36.015625 43.402344 35.824219 C 43.691406 35.628906 43.988281 35.449219 44.292969 35.285156 C 44.597656 35.125 44.914062 34.972656 45.234375 34.84375 C 45.554688 34.707031 45.878906 34.589844 46.210938 34.492188 C 46.542969 34.390625 46.878906 34.304688 47.21875 34.238281 C 47.558594 34.171875 47.902344 34.117188 48.246094 34.085938 C 48.589844 34.050781 48.9375 34.035156 49.28125 34.035156 C 49.628906 34.035156 49.976562 34.050781 50.320312 34.085938 C 50.664062 34.117188 51.007812 34.171875 51.347656 34.238281 C 51.6875 34.304688 52.023438 34.390625 52.355469 34.492188 C 52.6875 34.589844 53.011719 34.707031 53.332031 34.84375 C 53.65625 34.972656 53.96875 35.125 54.273438 35.285156 C 54.578125 35.449219 54.875 35.628906 55.164062 35.824219 C 55.453125 36.015625 55.730469 36.222656 56 36.441406 C 56.265625 36.660156 56.523438 36.894531 56.765625 37.140625 C 57.011719 37.386719 57.246094 37.644531 57.464844 37.910156 C 57.6875 38.179688 57.890625 38.460938 58.082031 38.75 C 58.277344 39.039062 58.453125 39.335938 58.617188 39.640625 C 58.78125 39.949219 58.929688 40.261719 59.0625 40.582031 C 59.195312 40.902344 59.3125 41.230469 59.414062 41.5625 C 59.511719 41.894531 59.597656 42.230469 59.664062 42.570312 C 59.730469 42.914062 59.78125 43.257812 59.816406 43.601562 C 59.851562 43.949219 59.867188 44.292969 59.867188 44.644531 Z M 59.867188 44.644531 "/>
<path style=" stroke:none;fill-rule:nonzero;fill:rgb(9.411765%,21.176471%,31.764706%);fill-opacity:1;" d="M 49.28125 56.871094 C 48.886719 56.871094 48.496094 56.851562 48.101562 56.8125 C 47.707031 56.773438 47.320312 56.71875 46.933594 56.640625 C 46.542969 56.5625 46.160156 56.464844 45.785156 56.351562 C 45.40625 56.238281 45.035156 56.105469 44.671875 55.953125 C 44.304688 55.800781 43.949219 55.632812 43.601562 55.445312 C 43.253906 55.257812 42.914062 55.054688 42.585938 54.835938 C 42.257812 54.617188 41.941406 54.378906 41.636719 54.128906 C 41.332031 53.878906 41.039062 53.613281 40.757812 53.332031 C 40.480469 53.054688 40.214844 52.761719 39.964844 52.453125 C 39.714844 52.148438 39.480469 51.832031 39.261719 51.503906 C 39.039062 51.171875 38.839844 50.832031 38.652344 50.484375 C 38.464844 50.136719 38.296875 49.777344 38.144531 49.414062 C 37.996094 49.046875 37.863281 48.675781 37.75 48.296875 C 37.632812 47.917969 37.539062 47.535156 37.460938 47.144531 C 37.382812 46.757812 37.324219 46.367188 37.285156 45.972656 C 37.25 45.578125 37.230469 45.1875 37.230469 44.789062 C 37.230469 44.394531 37.25 44 37.285156 43.605469 C 37.324219 43.210938 37.382812 42.820312 37.460938 42.433594 C 37.539062 42.042969 37.632812 41.660156 37.75 41.28125 C 37.863281 40.902344 37.996094 40.53125 38.144531 40.167969 C 38.296875 39.800781 38.464844 39.441406 38.652344 39.09375 C 38.839844 38.746094 39.039062 38.40625 39.261719 38.078125 C 39.480469 37.75 39.714844 37.429688 39.964844 37.125 C 40.214844 36.820312 40.480469 36.527344 40.757812 36.246094 C 41.039062 35.964844 41.332031 35.699219 41.636719 35.449219 C 41.941406 35.199219 42.257812 34.964844 42.585938 34.746094 C 42.914062 34.523438 43.253906 34.320312 43.601562 34.136719 C 43.949219 33.949219 44.304688 33.777344 44.671875 33.628906 C 45.035156 33.476562 45.40625 33.34375 45.785156 33.226562 C 46.160156 33.113281 46.542969 33.015625 46.933594 32.941406 C 47.320312 32.863281 47.707031 32.804688 48.101562 32.765625 C 48.496094 32.726562 48.886719 32.707031 49.28125 32.707031 C 49.679688 32.707031 50.070312 32.726562 50.464844 32.765625 C 50.859375 32.804688 51.25 32.863281 51.636719 32.941406 C 52.023438 33.015625 52.40625 33.113281 52.78125 33.226562 C 53.160156 33.34375 53.53125 33.476562 53.894531 33.628906 C 54.261719 33.777344 54.617188 33.949219 54.964844 34.136719 C 55.3125 34.320312 55.652344 34.523438 55.980469 34.746094 C 56.308594 34.964844 56.625 35.199219 56.929688 35.449219 C 57.238281 35.699219 57.527344 35.964844 57.808594 36.246094 C 58.085938 36.527344 58.351562 36.820312 58.601562 37.125 C 58.851562 37.429688 59.085938 37.75 59.308594 38.078125 C 59.527344 38.40625 59.730469 38.746094 59.914062 39.09375 C 60.101562 39.441406 60.269531 39.800781 60.421875 40.167969 C 60.570312 40.53125 60.703125 40.902344 60.820312 41.28125 C 60.933594 41.660156 61.027344 42.042969 61.105469 42.433594 C 61.183594 42.820312 61.242188 43.210938 61.28125 43.605469 C 61.320312 44 61.335938 44.394531 61.335938 44.789062 C 61.335938 45.183594 61.316406 45.578125 61.273438 45.972656 C 61.234375 46.367188 61.175781 46.753906 61.097656 47.144531 C 61.019531 47.53125 60.921875 47.914062 60.804688 48.289062 C 60.691406 48.667969 60.554688 49.039062 60.40625 49.402344 C 60.253906 49.769531 60.082031 50.125 59.898438 50.472656 C 59.710938 50.820312 59.507812 51.160156 59.289062 51.488281 C 59.070312 51.816406 58.835938 52.132812 58.585938 52.4375 C 58.332031 52.746094 58.070312 53.035156 57.789062 53.316406 C 57.511719 53.597656 57.21875 53.859375 56.914062 54.113281 C 56.609375 54.363281 56.292969 54.597656 55.96875 54.816406 C 55.640625 55.039062 55.300781 55.242188 54.953125 55.429688 C 54.609375 55.617188 54.25 55.785156 53.886719 55.9375 C 53.523438 56.089844 53.152344 56.222656 52.777344 56.339844 C 52.398438 56.453125 52.015625 56.550781 51.632812 56.628906 C 51.246094 56.707031 50.855469 56.769531 50.464844 56.808594 C 50.070312 56.847656 49.675781 56.871094 49.28125 56.871094 Z M 49.28125 35.507812 C 48.984375 35.507812 48.6875 35.523438 48.390625 35.550781 C 48.09375 35.582031 47.800781 35.625 47.507812 35.683594 C 47.214844 35.742188 46.925781 35.8125 46.640625 35.902344 C 46.351562 35.988281 46.074219 36.089844 45.796875 36.203125 C 45.523438 36.316406 45.25 36.445312 44.988281 36.585938 C 44.726562 36.726562 44.46875 36.878906 44.222656 37.046875 C 43.972656 37.210938 43.734375 37.390625 43.503906 37.578125 C 43.273438 37.769531 43.050781 37.972656 42.84375 38.183594 C 42.628906 38.394531 42.429688 38.613281 42.242188 38.847656 C 42.050781 39.078125 41.875 39.316406 41.710938 39.566406 C 41.542969 39.816406 41.390625 40.070312 41.25 40.332031 C 41.109375 40.597656 40.980469 40.867188 40.867188 41.144531 C 40.753906 41.421875 40.652344 41.703125 40.566406 41.988281 C 40.480469 42.273438 40.40625 42.5625 40.347656 42.855469 C 40.292969 43.148438 40.246094 43.445312 40.21875 43.742188 C 40.1875 44.039062 40.171875 44.339844 40.171875 44.636719 C 40.171875 44.9375 40.1875 45.234375 40.21875 45.535156 C 40.246094 45.832031 40.292969 46.125 40.347656 46.417969 C 40.40625 46.710938 40.480469 47.003906 40.566406 47.289062 C 40.652344 47.574219 40.753906 47.855469 40.867188 48.132812 C 40.980469 48.410156 41.109375 48.679688 41.25 48.941406 C 41.390625 49.207031 41.542969 49.460938 41.710938 49.710938 C 41.875 49.960938 42.054688 50.199219 42.242188 50.429688 C 42.429688 50.660156 42.628906 50.882812 42.84375 51.09375 C 43.050781 51.304688 43.273438 51.507812 43.503906 51.695312 C 43.734375 51.886719 43.972656 52.0625 44.222656 52.230469 C 44.46875 52.394531 44.726562 52.550781 44.988281 52.691406 C 45.25 52.832031 45.523438 52.957031 45.796875 53.074219 C 46.074219 53.1875 46.351562 53.289062 46.640625 53.375 C 46.925781 53.460938 47.214844 53.535156 47.507812 53.59375 C 47.800781 53.652344 48.09375 53.695312 48.390625 53.722656 C 48.6875 53.753906 48.984375 53.769531 49.28125 53.769531 C 49.582031 53.769531 49.878906 53.753906 50.175781 53.722656 C 50.472656 53.695312 50.765625 53.652344 51.058594 53.59375 C 51.351562 53.535156 51.644531 53.460938 51.929688 53.375 C 52.214844 53.289062 52.496094 53.1875 52.769531 53.074219 C 53.046875 52.957031 53.3125 52.832031 53.578125 52.691406 C 53.839844 52.550781 54.097656 52.394531 54.34375 52.230469 C 54.59375 52.0625 54.832031 51.886719 55.0625 51.695312 C 55.292969 51.507812 55.515625 51.304688 55.726562 51.09375 C 55.9375 50.882812 56.136719 50.660156 56.324219 50.429688 C 56.515625 50.199219 56.691406 49.960938 56.859375 49.710938 C 57.023438 49.460938 57.175781 49.207031 57.316406 48.941406 C 57.457031 48.679688 57.585938 48.410156 57.699219 48.132812 C 57.8125 47.855469 57.914062 47.574219 58 47.289062 C 58.085938 47.003906 58.160156 46.710938 58.21875 46.417969 C 58.277344 46.125 58.320312 45.832031 58.347656 45.535156 C 58.378906 45.234375 58.394531 44.9375 58.394531 44.636719 C 58.390625 44.339844 58.375 44.042969 58.34375 43.746094 C 58.3125 43.449219 58.269531 43.152344 58.210938 42.859375 C 58.148438 42.566406 58.078125 42.277344 57.988281 41.992188 C 57.902344 41.707031 57.800781 41.425781 57.6875 41.152344 C 57.570312 40.875 57.445312 40.605469 57.304688 40.34375 C 57.160156 40.082031 57.007812 39.824219 56.84375 39.578125 C 56.675781 39.328125 56.5 39.089844 56.3125 38.859375 C 56.121094 38.628906 55.921875 38.40625 55.710938 38.195312 C 55.5 37.984375 55.28125 37.785156 55.050781 37.597656 C 54.820312 37.40625 54.582031 37.230469 54.332031 37.0625 C 54.085938 36.894531 53.832031 36.742188 53.566406 36.601562 C 53.304688 36.460938 53.035156 36.332031 52.761719 36.214844 C 52.488281 36.101562 52.207031 36 51.921875 35.910156 C 51.636719 35.824219 51.347656 35.75 51.058594 35.691406 C 50.765625 35.632812 50.472656 35.585938 50.175781 35.554688 C 49.878906 35.527344 49.582031 35.507812 49.28125 35.507812 Z M 49.28125 35.507812 "/>
<path style=" stroke:none;fill-rule:nonzero;fill:rgb(98.431373%,74.117647%,36.862745%);fill-opacity:1;" d="M 49.28125 55.398438 C 48.9375 55.398438 48.59375 55.40625 48.25 55.421875 C 47.90625 55.441406 47.566406 55.46875 47.222656 55.5 C 46.878906 55.535156 46.539062 55.574219 46.199219 55.625 C 45.859375 55.675781 45.519531 55.738281 45.179688 55.804688 C 44.84375 55.871094 44.507812 55.945312 44.175781 56.03125 C 43.839844 56.113281 43.511719 56.207031 43.179688 56.304688 C 42.851562 56.40625 42.527344 56.515625 42.199219 56.628906 C 41.878906 56.746094 41.554688 56.871094 41.238281 57.003906 C 40.921875 57.132812 40.605469 57.273438 40.296875 57.421875 C 39.984375 57.570312 39.675781 57.722656 39.375 57.886719 C 39.070312 58.050781 38.769531 58.21875 38.476562 58.394531 C 38.179688 58.574219 37.890625 58.757812 37.605469 58.949219 C 37.320312 59.140625 37.035156 59.339844 36.761719 59.546875 C 36.484375 59.75 36.210938 59.960938 35.945312 60.179688 C 35.679688 60.398438 35.421875 60.625 35.164062 60.855469 C 34.910156 61.089844 34.664062 61.324219 34.417969 61.570312 C 34.175781 61.8125 33.9375 62.0625 33.707031 62.320312 C 33.476562 62.574219 33.25 62.835938 33.03125 63.101562 C 32.816406 63.367188 32.601562 63.640625 32.398438 63.917969 C 32.191406 64.195312 31.996094 64.476562 31.804688 64.761719 C 31.613281 65.050781 31.429688 65.339844 31.25 65.636719 C 31.074219 65.933594 30.90625 66.230469 30.742188 66.535156 C 30.582031 66.839844 30.425781 67.148438 30.28125 67.460938 C 30.132812 67.769531 29.992188 68.085938 29.859375 68.40625 C 29.730469 68.722656 29.605469 69.046875 29.488281 69.371094 C 29.375 69.695312 29.265625 70.023438 29.167969 70.351562 C 29.066406 70.683594 28.972656 71.015625 28.890625 71.347656 C 28.808594 71.683594 28.734375 72.019531 28.664062 72.359375 C 28.597656 72.695312 28.539062 73.035156 28.488281 73.375 C 28.4375 73.71875 28.394531 74.058594 28.363281 74.402344 C 28.328125 74.746094 28.304688 75.089844 28.285156 75.433594 C 28.269531 75.777344 28.261719 76.125 28.261719 76.46875 L 70.304688 76.46875 C 70.304688 76.125 70.296875 75.777344 70.28125 75.433594 C 70.261719 75.089844 70.238281 74.746094 70.203125 74.402344 C 70.171875 74.058594 70.128906 73.71875 70.078125 73.375 C 70.027344 73.035156 69.96875 72.695312 69.902344 72.359375 C 69.835938 72.019531 69.757812 71.683594 69.675781 71.347656 C 69.59375 71.015625 69.5 70.683594 69.398438 70.351562 C 69.300781 70.023438 69.191406 69.695312 69.078125 69.371094 C 68.960938 69.046875 68.835938 68.722656 68.707031 68.40625 C 68.574219 68.085938 68.433594 67.769531 68.289062 67.460938 C 68.140625 67.148438 67.984375 66.839844 67.824219 66.535156 C 67.660156 66.230469 67.492188 65.933594 67.316406 65.636719 C 67.136719 65.339844 66.953125 65.050781 66.761719 64.761719 C 66.570312 64.476562 66.375 64.195312 66.167969 63.917969 C 65.964844 63.640625 65.753906 63.367188 65.535156 63.101562 C 65.316406 62.835938 65.089844 62.574219 64.859375 62.320312 C 64.628906 62.0625 64.390625 61.8125 64.148438 61.570312 C 63.90625 61.324219 63.65625 61.089844 63.402344 60.855469 C 63.144531 60.625 62.886719 60.398438 62.621094 60.179688 C 62.351562 59.960938 62.082031 59.75 61.804688 59.546875 C 61.53125 59.339844 61.25 59.140625 60.960938 58.949219 C 60.675781 58.757812 60.386719 58.574219 60.089844 58.394531 C 59.796875 58.21875 59.496094 58.050781 59.191406 57.886719 C 58.890625 57.722656 58.582031 57.570312 58.269531 57.421875 C 57.960938 57.273438 57.644531 57.132812 57.328125 57.003906 C 57.011719 56.871094 56.6875 56.746094 56.367188 56.628906 C 56.042969 56.515625 55.714844 56.40625 55.386719 56.304688 C 55.054688 56.207031 54.726562 56.113281 54.390625 56.03125 C 54.058594 55.945312 53.722656 55.871094 53.382812 55.804688 C 53.046875 55.738281 52.707031 55.675781 52.367188 55.625 C 52.027344 55.574219 51.6875 55.535156 51.34375 55.5 C 51 55.46875 50.660156 55.441406 50.316406 55.421875 C 49.972656 55.40625 49.628906 55.398438 49.28125 55.398438 Z M 49.28125 55.398438 "/>
<path style=" stroke:none;fill-rule:nonzero;fill:rgb(9.411765%,21.176471%,31.764706%);fill-opacity:1;" d="M 70.304688 77.796875 L 28.261719 77.796875 C 28.160156 77.800781 28.0625 77.796875 27.96875 77.78125 C 27.871094 77.765625 27.777344 77.742188 27.683594 77.707031 C 27.589844 77.671875 27.503906 77.628906 27.421875 77.574219 C 27.339844 77.519531 27.265625 77.460938 27.195312 77.390625 C 27.125 77.320312 27.0625 77.246094 27.007812 77.160156 C 26.957031 77.078125 26.910156 76.992188 26.875 76.898438 C 26.84375 76.808594 26.816406 76.710938 26.800781 76.613281 C 26.789062 76.515625 26.78125 76.417969 26.789062 76.320312 C 26.789062 75.953125 26.800781 75.582031 26.816406 75.214844 C 26.835938 74.847656 26.863281 74.480469 26.898438 74.113281 C 26.9375 73.746094 26.980469 73.378906 27.035156 73.015625 C 27.089844 72.648438 27.152344 72.289062 27.222656 71.925781 C 27.296875 71.5625 27.375 71.203125 27.46875 70.847656 C 27.554688 70.488281 27.65625 70.132812 27.761719 69.78125 C 27.867188 69.429688 27.984375 69.078125 28.109375 68.730469 C 28.234375 68.382812 28.363281 68.039062 28.507812 67.699219 C 28.648438 67.359375 28.796875 67.023438 28.953125 66.6875 C 29.109375 66.355469 29.277344 66.027344 29.449219 65.699219 C 29.625 65.375 29.804688 65.054688 29.996094 64.738281 C 30.183594 64.421875 30.382812 64.109375 30.585938 63.804688 C 30.789062 63.496094 31 63.195312 31.222656 62.898438 C 31.441406 62.605469 31.667969 62.3125 31.902344 62.027344 C 32.132812 61.746094 32.375 61.464844 32.621094 61.191406 C 32.867188 60.917969 33.121094 60.652344 33.382812 60.390625 C 33.644531 60.128906 33.910156 59.875 34.179688 59.628906 C 34.457031 59.382812 34.734375 59.140625 35.019531 58.90625 C 35.300781 58.671875 35.59375 58.445312 35.886719 58.226562 C 36.183594 58.007812 36.484375 57.792969 36.789062 57.589844 C 37.097656 57.386719 37.40625 57.1875 37.722656 56.996094 C 38.039062 56.808594 38.359375 56.628906 38.683594 56.453125 C 39.007812 56.28125 39.335938 56.113281 39.667969 55.957031 C 40 55.800781 40.335938 55.648438 40.679688 55.507812 C 41.019531 55.367188 41.359375 55.234375 41.707031 55.109375 C 42.054688 54.988281 42.402344 54.871094 42.753906 54.765625 C 43.109375 54.65625 43.460938 54.558594 43.820312 54.46875 C 44.175781 54.378906 44.535156 54.296875 44.894531 54.226562 C 45.257812 54.15625 45.617188 54.09375 45.980469 54.039062 C 46.347656 53.984375 46.710938 53.9375 47.078125 53.902344 C 47.445312 53.867188 47.8125 53.839844 48.179688 53.820312 C 48.546875 53.804688 48.914062 53.792969 49.28125 53.792969 C 49.648438 53.792969 50.015625 53.804688 50.382812 53.820312 C 50.75 53.839844 51.121094 53.867188 51.484375 53.902344 C 51.851562 53.9375 52.214844 53.984375 52.582031 54.039062 C 52.945312 54.09375 53.304688 54.15625 53.667969 54.226562 C 54.027344 54.296875 54.386719 54.378906 54.746094 54.46875 C 55.101562 54.558594 55.457031 54.65625 55.808594 54.765625 C 56.160156 54.871094 56.507812 54.988281 56.855469 55.109375 C 57.203125 55.234375 57.546875 55.367188 57.882812 55.507812 C 58.226562 55.648438 58.5625 55.800781 58.894531 55.957031 C 59.226562 56.113281 59.554688 56.28125 59.878906 56.453125 C 60.203125 56.628906 60.523438 56.808594 60.839844 56.996094 C 61.15625 57.1875 61.46875 57.386719 61.773438 57.589844 C 62.078125 57.792969 62.378906 58.007812 62.675781 58.226562 C 62.96875 58.445312 63.261719 58.671875 63.546875 58.90625 C 63.828125 59.140625 64.109375 59.382812 64.378906 59.628906 C 64.652344 59.875 64.921875 60.128906 65.179688 60.390625 C 65.441406 60.652344 65.695312 60.917969 65.941406 61.191406 C 66.1875 61.464844 66.429688 61.746094 66.664062 62.027344 C 66.894531 62.3125 67.121094 62.605469 67.339844 62.898438 C 67.558594 63.195312 67.773438 63.496094 67.976562 63.804688 C 68.183594 64.109375 68.378906 64.421875 68.566406 64.738281 C 68.757812 65.054688 68.9375 65.375 69.113281 65.699219 C 69.285156 66.027344 69.449219 66.355469 69.609375 66.6875 C 69.765625 67.023438 69.914062 67.359375 70.058594 67.699219 C 70.199219 68.039062 70.332031 68.382812 70.453125 68.730469 C 70.578125 69.078125 70.695312 69.429688 70.800781 69.78125 C 70.910156 70.132812 71.007812 70.488281 71.097656 70.847656 C 71.1875 71.203125 71.265625 71.5625 71.339844 71.925781 C 71.410156 72.289062 71.472656 72.648438 71.527344 73.015625 C 71.582031 73.378906 71.628906 73.746094 71.664062 74.113281 C 71.699219 74.480469 71.726562 74.847656 71.746094 75.214844 C 71.761719 75.582031 71.773438 75.953125 71.773438 76.320312 C 71.773438 76.417969 71.761719 76.511719 71.746094 76.605469 C 71.726562 76.703125 71.699219 76.792969 71.660156 76.882812 C 71.625 76.972656 71.578125 77.058594 71.523438 77.136719 C 71.472656 77.21875 71.410156 77.292969 71.34375 77.359375 C 71.273438 77.429688 71.199219 77.492188 71.121094 77.542969 C 71.039062 77.597656 70.953125 77.644531 70.867188 77.679688 C 70.777344 77.71875 70.6875 77.746094 70.589844 77.765625 C 70.496094 77.785156 70.402344 77.792969 70.304688 77.796875 Z M 29.730469 74.847656 L 68.6875 74.847656 C 68.640625 74.242188 68.566406 73.636719 68.464844 73.035156 C 68.363281 72.4375 68.234375 71.839844 68.078125 71.253906 C 67.921875 70.664062 67.738281 70.085938 67.527344 69.511719 C 67.316406 68.941406 67.078125 68.382812 66.816406 67.832031 C 66.550781 67.285156 66.261719 66.746094 65.953125 66.226562 C 65.636719 65.703125 65.300781 65.199219 64.941406 64.707031 C 64.582031 64.214844 64.199219 63.742188 63.796875 63.289062 C 63.390625 62.832031 62.964844 62.398438 62.523438 61.980469 C 62.078125 61.566406 61.613281 61.171875 61.132812 60.800781 C 60.652344 60.429688 60.152344 60.082031 59.640625 59.753906 C 59.125 59.429688 58.597656 59.128906 58.058594 58.851562 C 57.515625 58.578125 56.960938 58.324219 56.398438 58.101562 C 55.832031 57.878906 55.257812 57.679688 54.675781 57.511719 C 54.089844 57.339844 53.5 57.195312 52.902344 57.082031 C 52.308594 56.964844 51.707031 56.878906 51.101562 56.816406 C 50.496094 56.757812 49.890625 56.726562 49.28125 56.726562 C 48.675781 56.734375 48.066406 56.769531 47.460938 56.832031 C 46.859375 56.898438 46.257812 56.988281 45.660156 57.109375 C 45.0625 57.226562 44.476562 57.371094 43.890625 57.546875 C 43.308594 57.71875 42.734375 57.917969 42.167969 58.144531 C 41.605469 58.371094 41.050781 58.625 40.507812 58.898438 C 39.96875 59.175781 39.441406 59.480469 38.925781 59.804688 C 38.410156 60.128906 37.914062 60.476562 37.429688 60.847656 C 36.949219 61.21875 36.484375 61.613281 36.039062 62.027344 C 35.589844 62.441406 35.164062 62.875 34.757812 63.328125 C 34.351562 63.78125 33.964844 64.25 33.601562 64.738281 C 33.234375 65.226562 32.894531 65.730469 32.578125 66.25 C 32.261719 66.769531 31.96875 67.304688 31.699219 67.851562 C 31.429688 68.398438 31.1875 68.957031 30.96875 69.523438 C 30.75 70.09375 30.558594 70.671875 30.394531 71.257812 C 30.226562 71.847656 30.089844 72.4375 29.980469 73.039062 C 29.867188 73.636719 29.785156 74.242188 29.730469 74.847656 Z M 29.730469 74.847656 "/>
<path style=" stroke:none;fill-rule:nonzero;fill:rgb(9.411765%,21.176471%,31.764706%);fill-opacity:1;" d="M 33.554688 6.335938 L 36.492188 6.335938 L 36.492188 9.28125 L 33.554688 9.28125 Z M 33.554688 6.335938 "/>
<path style=" stroke:none;fill-rule:nonzero;fill:rgb(9.411765%,21.176471%,31.764706%);fill-opacity:1;" d="M 45.460938 6.335938 L 48.402344 6.335938 L 48.402344 9.28125 L 45.460938 9.28125 Z M 45.460938 6.335938 "/>
<path style=" stroke:none;fill-rule:nonzero;fill:rgb(9.411765%,21.176471%,31.764706%);fill-opacity:1;" d="M 57.222656 6.335938 L 60.160156 6.335938 L 60.160156 9.28125 L 57.222656 9.28125 Z M 57.222656 6.335938 "/>
<path style=" stroke:none;fill-rule:nonzero;fill:rgb(9.411765%,21.176471%,31.764706%);fill-opacity:1;" d="M 33.554688 83.980469 L 36.492188 83.980469 L 36.492188 86.929688 L 33.554688 86.929688 Z M 33.554688 83.980469 "/>
<path style=" stroke:none;fill-rule:nonzero;fill:rgb(9.411765%,21.176471%,31.764706%);fill-opacity:1;" d="M 45.460938 83.980469 L 48.402344 83.980469 L 48.402344 86.929688 L 45.460938 86.929688 Z M 45.460938 83.980469 "/>
<path style=" stroke:none;fill-rule:nonzero;fill:rgb(9.411765%,21.176471%,31.764706%);fill-opacity:1;" d="M 57.222656 83.980469 L 60.160156 83.980469 L 60.160156 86.929688 L 57.222656 86.929688 Z M 57.222656 83.980469 "/>
<path style=" stroke:none;fill-rule:nonzero;fill:rgb(9.411765%,21.176471%,31.764706%);fill-opacity:1;" d="M 84.125 33.296875 L 87.0625 33.296875 L 87.0625 36.246094 L 84.125 36.246094 Z M 84.125 33.296875 "/>
<path style=" stroke:none;fill-rule:nonzero;fill:rgb(9.411765%,21.176471%,31.764706%);fill-opacity:1;" d="M 84.125 45.230469 L 87.0625 45.230469 L 87.0625 48.179688 L 84.125 48.179688 Z M 84.125 45.230469 "/>
<path style=" stroke:none;fill-rule:nonzero;fill:rgb(9.411765%,21.176471%,31.764706%);fill-opacity:1;" d="M 84.125 57.167969 L 87.0625 57.167969 L 87.0625 60.113281 L 84.125 60.113281 Z M 84.125 57.167969 "/>
<path style=" stroke:none;fill-rule:nonzero;fill:rgb(9.411765%,21.176471%,31.764706%);fill-opacity:1;" d="M 6.652344 33.296875 L 9.589844 33.296875 L 9.589844 36.246094 L 6.652344 36.246094 Z M 6.652344 33.296875 "/>
<path style=" stroke:none;fill-rule:nonzero;fill:rgb(9.411765%,21.176471%,31.764706%);fill-opacity:1;" d="M 6.652344 45.230469 L 9.589844 45.230469 L 9.589844 48.179688 L 6.652344 48.179688 Z M 6.652344 45.230469 "/>
<path style=" stroke:none;fill-rule:nonzero;fill:rgb(9.411765%,21.176471%,31.764706%);fill-opacity:1;" d="M 6.652344 57.167969 L 9.589844 57.167969 L 9.589844 60.113281 L 6.652344 60.113281 Z M 6.652344 57.167969 "/>
<path style=" stroke:none;fill-rule:nonzero;fill:rgb(100%,100%,100%);fill-opacity:1;" d="M 20.324219 7.808594 C 20.324219 8.015625 20.3125 8.222656 20.292969 8.429688 C 20.273438 8.636719 20.242188 8.84375 20.203125 9.046875 C 20.160156 9.25 20.113281 9.449219 20.050781 9.648438 C 19.992188 9.847656 19.921875 10.042969 19.84375 10.234375 C 19.761719 10.425781 19.675781 10.613281 19.578125 10.796875 C 19.480469 10.980469 19.375 11.15625 19.257812 11.328125 C 19.144531 11.5 19.019531 11.667969 18.890625 11.828125 C 18.757812 11.988281 18.617188 12.144531 18.472656 12.289062 C 18.328125 12.4375 18.171875 12.574219 18.011719 12.707031 C 17.851562 12.839844 17.6875 12.960938 17.515625 13.078125 C 17.34375 13.191406 17.164062 13.300781 16.980469 13.398438 C 16.800781 13.496094 16.613281 13.582031 16.421875 13.664062 C 16.230469 13.742188 16.035156 13.8125 15.835938 13.871094 C 15.640625 13.933594 15.4375 13.984375 15.234375 14.023438 C 15.03125 14.0625 14.828125 14.09375 14.621094 14.113281 C 14.414062 14.136719 14.210938 14.144531 14.003906 14.144531 C 13.796875 14.144531 13.589844 14.136719 13.382812 14.113281 C 13.175781 14.09375 12.972656 14.0625 12.769531 14.023438 C 12.566406 13.984375 12.363281 13.933594 12.167969 13.871094 C 11.96875 13.8125 11.773438 13.742188 11.582031 13.664062 C 11.390625 13.582031 11.203125 13.496094 11.023438 13.398438 C 10.839844 13.300781 10.660156 13.191406 10.488281 13.078125 C 10.316406 12.960938 10.152344 12.839844 9.992188 12.707031 C 9.832031 12.574219 9.679688 12.4375 9.53125 12.289062 C 9.386719 12.144531 9.246094 11.988281 9.113281 11.828125 C 8.984375 11.667969 8.859375 11.5 8.746094 11.328125 C 8.632812 11.15625 8.523438 10.980469 8.425781 10.796875 C 8.328125 10.613281 8.242188 10.425781 8.160156 10.234375 C 8.082031 10.042969 8.011719 9.847656 7.953125 9.648438 C 7.894531 9.449219 7.84375 9.25 7.800781 9.046875 C 7.761719 8.84375 7.730469 8.636719 7.710938 8.429688 C 7.691406 8.222656 7.679688 8.015625 7.679688 7.808594 C 7.679688 7.601562 7.691406 7.394531 7.710938 7.1875 C 7.730469 6.980469 7.761719 6.777344 7.800781 6.574219 C 7.84375 6.371094 7.894531 6.167969 7.953125 5.96875 C 8.011719 5.773438 8.082031 5.578125 8.160156 5.386719 C 8.242188 5.195312 8.328125 5.003906 8.425781 4.824219 C 8.523438 4.640625 8.632812 4.460938 8.746094 4.289062 C 8.859375 4.117188 8.984375 3.949219 9.113281 3.789062 C 9.246094 3.628906 9.386719 3.476562 9.53125 3.328125 C 9.679688 3.183594 9.832031 3.042969 9.992188 2.914062 C 10.152344 2.78125 10.316406 2.65625 10.488281 2.542969 C 10.660156 2.425781 10.839844 2.320312 11.023438 2.222656 C 11.203125 2.125 11.390625 2.035156 11.582031 1.957031 C 11.773438 1.875 11.96875 1.804688 12.167969 1.746094 C 12.363281 1.6875 12.566406 1.636719 12.769531 1.59375 C 12.972656 1.554688 13.175781 1.523438 13.382812 1.503906 C 13.589844 1.484375 13.796875 1.472656 14.003906 1.472656 C 14.210938 1.472656 14.414062 1.484375 14.621094 1.503906 C 14.828125 1.523438 15.03125 1.554688 15.234375 1.59375 C 15.4375 1.636719 15.640625 1.6875 15.835938 1.746094 C 16.035156 1.804688 16.230469 1.875 16.421875 1.957031 C 16.613281 2.035156 16.800781 2.125 16.980469 2.222656 C 17.164062 2.320312 17.34375 2.425781 17.515625 2.542969 C 17.6875 2.65625 17.851562 2.78125 18.011719 2.914062 C 18.171875 3.042969 18.328125 3.183594 18.472656 3.328125 C 18.617188 3.476562 18.757812 3.628906 18.890625 3.789062 C 19.019531 3.949219 19.144531 4.117188 19.257812 4.289062 C 19.375 4.460938 19.480469 4.640625 19.578125 4.824219 C 19.675781 5.003906 19.761719 5.195312 19.84375 5.386719 C 19.921875 5.578125 19.992188 5.773438 20.050781 5.96875 C 20.113281 6.167969 20.160156 6.371094 20.203125 6.574219 C 20.242188 6.777344 20.273438 6.980469 20.292969 7.1875 C 20.3125 7.394531 20.324219 7.601562 20.324219 7.808594 Z M 20.324219 7.808594 "/>
<g clip-path="url(#clip2)" clip-rule="nonzero">
<path style=" stroke:none;fill-rule:nonzero;fill:rgb(9.411765%,21.176471%,31.764706%);fill-opacity:1;" d="M 14.003906 15.617188 C 13.746094 15.617188 13.492188 15.601562 13.238281 15.574219 C 12.988281 15.546875 12.734375 15.511719 12.484375 15.460938 C 12.234375 15.410156 11.988281 15.34375 11.746094 15.269531 C 11.503906 15.195312 11.261719 15.109375 11.027344 15.007812 C 10.792969 14.910156 10.5625 14.800781 10.339844 14.679688 C 10.113281 14.558594 9.898438 14.429688 9.6875 14.285156 C 9.472656 14.144531 9.269531 13.992188 9.074219 13.828125 C 8.875 13.667969 8.6875 13.496094 8.507812 13.316406 C 8.328125 13.136719 8.15625 12.945312 7.996094 12.75 C 7.832031 12.550781 7.679688 12.347656 7.539062 12.136719 C 7.398438 11.921875 7.265625 11.703125 7.144531 11.480469 C 7.023438 11.253906 6.914062 11.023438 6.816406 10.789062 C 6.71875 10.554688 6.632812 10.3125 6.558594 10.070312 C 6.484375 9.824219 6.421875 9.578125 6.367188 9.328125 C 6.316406 9.078125 6.277344 8.824219 6.253906 8.570312 C 6.226562 8.320312 6.210938 8.066406 6.210938 7.808594 C 6.210938 7.554688 6.222656 7.296875 6.25 7.042969 C 6.273438 6.789062 6.3125 6.535156 6.359375 6.285156 C 6.410156 6.035156 6.472656 5.785156 6.546875 5.542969 C 6.621094 5.296875 6.707031 5.058594 6.804688 4.820312 C 6.902344 4.585938 7.011719 4.351562 7.128906 4.128906 C 7.25 3.902344 7.382812 3.683594 7.523438 3.46875 C 7.664062 3.257812 7.816406 3.054688 7.980469 2.855469 C 8.140625 2.65625 8.3125 2.46875 8.492188 2.285156 C 8.671875 2.105469 8.863281 1.933594 9.058594 1.773438 C 9.257812 1.609375 9.460938 1.457031 9.671875 1.316406 C 9.886719 1.175781 10.105469 1.042969 10.328125 0.921875 C 10.554688 0.800781 10.785156 0.691406 11.019531 0.59375 C 11.257812 0.496094 11.496094 0.410156 11.742188 0.335938 C 11.984375 0.261719 12.230469 0.199219 12.484375 0.148438 C 12.730469 0.101562 12.984375 0.0625 13.238281 0.0390625 C 13.492188 0.0117188 13.746094 0 14.003906 0 C 14.257812 0 14.511719 0.0117188 14.765625 0.0390625 C 15.019531 0.0625 15.273438 0.101562 15.523438 0.148438 C 15.773438 0.199219 16.019531 0.261719 16.265625 0.335938 C 16.507812 0.410156 16.746094 0.496094 16.984375 0.59375 C 17.21875 0.691406 17.449219 0.800781 17.675781 0.921875 C 17.898438 1.042969 18.117188 1.175781 18.332031 1.316406 C 18.542969 1.457031 18.746094 1.609375 18.945312 1.773438 C 19.140625 1.933594 19.332031 2.105469 19.511719 2.285156 C 19.691406 2.46875 19.863281 2.65625 20.023438 2.855469 C 20.1875 3.054688 20.339844 3.257812 20.480469 3.46875 C 20.621094 3.683594 20.753906 3.902344 20.875 4.128906 C 20.992188 4.351562 21.101562 4.585938 21.199219 4.820312 C 21.296875 5.058594 21.382812 5.296875 21.457031 5.542969 C 21.53125 5.785156 21.59375 6.035156 21.644531 6.285156 C 21.695312 6.535156 21.730469 6.789062 21.753906 7.042969 C 21.78125 7.296875 21.792969 7.554688 21.792969 7.808594 C 21.792969 8.066406 21.785156 8.320312 21.757812 8.574219 C 21.734375 8.832031 21.699219 9.082031 21.652344 9.335938 C 21.601562 9.585938 21.539062 9.835938 21.46875 10.082031 C 21.394531 10.324219 21.308594 10.566406 21.210938 10.804688 C 21.113281 11.039062 21.007812 11.273438 20.886719 11.5 C 20.765625 11.726562 20.636719 11.945312 20.492188 12.15625 C 20.351562 12.371094 20.199219 12.574219 20.039062 12.773438 C 19.875 12.972656 19.703125 13.160156 19.523438 13.34375 C 19.34375 13.523438 19.152344 13.695312 18.957031 13.859375 C 18.757812 14.019531 18.554688 14.171875 18.339844 14.316406 C 18.128906 14.457031 17.910156 14.585938 17.683594 14.707031 C 17.457031 14.828125 17.226562 14.9375 16.992188 15.035156 C 16.753906 15.132812 16.511719 15.21875 16.269531 15.292969 C 16.023438 15.363281 15.777344 15.425781 15.523438 15.476562 C 15.273438 15.523438 15.019531 15.558594 14.765625 15.582031 C 14.511719 15.609375 14.257812 15.617188 14.003906 15.617188 Z M 14.003906 2.945312 C 13.84375 2.949219 13.6875 2.957031 13.527344 2.972656 C 13.371094 2.992188 13.214844 3.015625 13.058594 3.046875 C 12.902344 3.078125 12.75 3.117188 12.597656 3.164062 C 12.449219 3.214844 12.296875 3.265625 12.152344 3.328125 C 12.007812 3.390625 11.863281 3.457031 11.722656 3.535156 C 11.585938 3.609375 11.449219 3.691406 11.316406 3.78125 C 11.183594 3.867188 11.058594 3.960938 10.9375 4.0625 C 10.8125 4.164062 10.695312 4.269531 10.582031 4.382812 C 10.472656 4.496094 10.367188 4.613281 10.265625 4.734375 C 10.164062 4.859375 10.070312 4.984375 9.980469 5.117188 C 9.894531 5.25 9.8125 5.386719 9.734375 5.523438 C 9.660156 5.664062 9.59375 5.808594 9.53125 5.953125 C 9.46875 6.101562 9.414062 6.25 9.371094 6.402344 C 9.320312 6.554688 9.285156 6.707031 9.25 6.863281 C 9.21875 7.019531 9.195312 7.175781 9.179688 7.332031 C 9.160156 7.492188 9.152344 7.648438 9.152344 7.808594 C 9.152344 7.96875 9.160156 8.125 9.171875 8.285156 C 9.191406 8.445312 9.214844 8.601562 9.242188 8.757812 C 9.277344 8.914062 9.3125 9.066406 9.359375 9.21875 C 9.40625 9.371094 9.457031 9.523438 9.519531 9.667969 C 9.582031 9.816406 9.648438 9.960938 9.722656 10.101562 C 9.796875 10.242188 9.878906 10.378906 9.96875 10.511719 C 10.058594 10.644531 10.152344 10.769531 10.25 10.894531 C 10.351562 11.015625 10.460938 11.132812 10.570312 11.246094 C 10.683594 11.359375 10.800781 11.464844 10.925781 11.566406 C 11.046875 11.667969 11.175781 11.761719 11.304688 11.851562 C 11.4375 11.941406 11.574219 12.023438 11.714844 12.097656 C 11.855469 12.171875 12 12.238281 12.144531 12.300781 C 12.292969 12.363281 12.441406 12.414062 12.59375 12.460938 C 12.746094 12.507812 12.898438 12.546875 13.054688 12.578125 C 13.210938 12.609375 13.367188 12.632812 13.527344 12.648438 C 13.683594 12.664062 13.84375 12.671875 14.003906 12.671875 C 14.160156 12.671875 14.320312 12.664062 14.476562 12.648438 C 14.636719 12.632812 14.792969 12.609375 14.949219 12.578125 C 15.105469 12.546875 15.257812 12.507812 15.410156 12.460938 C 15.5625 12.414062 15.710938 12.363281 15.859375 12.300781 C 16.003906 12.238281 16.148438 12.171875 16.289062 12.097656 C 16.429688 12.023438 16.566406 11.941406 16.695312 11.851562 C 16.828125 11.761719 16.957031 11.667969 17.078125 11.566406 C 17.203125 11.464844 17.320312 11.359375 17.433594 11.246094 C 17.542969 11.132812 17.652344 11.015625 17.75 10.894531 C 17.851562 10.769531 17.949219 10.644531 18.035156 10.511719 C 18.125 10.378906 18.207031 10.242188 18.28125 10.101562 C 18.355469 9.960938 18.421875 9.816406 18.484375 9.667969 C 18.542969 9.523438 18.597656 9.371094 18.644531 9.21875 C 18.691406 9.066406 18.730469 8.914062 18.761719 8.757812 C 18.789062 8.601562 18.816406 8.445312 18.828125 8.285156 C 18.84375 8.125 18.851562 7.96875 18.851562 7.808594 C 18.855469 7.648438 18.847656 7.488281 18.832031 7.332031 C 18.820312 7.171875 18.796875 7.015625 18.765625 6.855469 C 18.738281 6.699219 18.699219 6.542969 18.65625 6.390625 C 18.609375 6.238281 18.558594 6.089844 18.496094 5.941406 C 18.4375 5.792969 18.367188 5.648438 18.292969 5.507812 C 18.21875 5.367188 18.136719 5.230469 18.050781 5.097656 C 17.960938 4.964844 17.867188 4.835938 17.765625 4.710938 C 17.664062 4.589844 17.558594 4.46875 17.445312 4.359375 C 17.332031 4.246094 17.214844 4.136719 17.09375 4.035156 C 16.96875 3.933594 16.839844 3.839844 16.707031 3.75 C 16.574219 3.664062 16.4375 3.582031 16.296875 3.507812 C 16.15625 3.433594 16.011719 3.363281 15.867188 3.304688 C 15.71875 3.242188 15.566406 3.191406 15.414062 3.144531 C 15.261719 3.097656 15.109375 3.0625 14.953125 3.03125 C 14.792969 3.003906 14.636719 2.980469 14.480469 2.964844 C 14.320312 2.949219 14.160156 2.945312 14.003906 2.945312 Z M 14.003906 2.945312 "/>
</g>
<path style=" stroke:none;fill-rule:nonzero;fill:rgb(18.039216%,62.745098%,85.490196%);fill-opacity:1;" d="M 14.003906 14.144531 C 13.59375 14.144531 13.183594 14.164062 12.777344 14.203125 C 12.371094 14.246094 11.964844 14.304688 11.5625 14.382812 C 11.160156 14.464844 10.765625 14.5625 10.375 14.683594 C 9.980469 14.800781 9.597656 14.9375 9.21875 15.09375 C 8.839844 15.25 8.46875 15.425781 8.109375 15.621094 C 7.75 15.8125 7.398438 16.023438 7.058594 16.253906 C 6.714844 16.480469 6.390625 16.722656 6.070312 16.984375 C 5.753906 17.246094 5.453125 17.519531 5.164062 17.808594 C 4.875 18.101562 4.601562 18.402344 4.339844 18.722656 C 4.078125 19.039062 3.835938 19.367188 3.609375 19.707031 C 3.382812 20.050781 3.171875 20.402344 2.980469 20.761719 C 2.785156 21.125 2.613281 21.496094 2.453125 21.875 C 2.296875 22.253906 2.160156 22.640625 2.042969 23.03125 C 1.921875 23.425781 1.824219 23.820312 1.746094 24.222656 C 1.664062 24.625 1.605469 25.03125 1.566406 25.441406 C 1.527344 25.847656 1.507812 26.257812 1.507812 26.667969 L 26.5 26.667969 C 26.5 26.257812 26.484375 25.847656 26.445312 25.4375 C 26.410156 25.027344 26.351562 24.621094 26.273438 24.21875 C 26.199219 23.8125 26.101562 23.414062 25.984375 23.019531 C 25.867188 22.625 25.730469 22.238281 25.574219 21.859375 C 25.417969 21.476562 25.246094 21.105469 25.054688 20.742188 C 24.859375 20.378906 24.652344 20.027344 24.425781 19.683594 C 24.195312 19.34375 23.953125 19.011719 23.695312 18.695312 C 23.433594 18.375 23.160156 18.074219 22.867188 17.78125 C 22.578125 17.492188 22.273438 17.214844 21.957031 16.957031 C 21.640625 16.695312 21.308594 16.449219 20.96875 16.222656 C 20.628906 15.996094 20.277344 15.785156 19.914062 15.59375 C 19.550781 15.398438 19.179688 15.226562 18.800781 15.070312 C 18.421875 14.914062 18.035156 14.777344 17.640625 14.660156 C 17.246094 14.542969 16.847656 14.445312 16.445312 14.367188 C 16.042969 14.289062 15.636719 14.234375 15.230469 14.195312 C 14.820312 14.160156 14.414062 14.140625 14.003906 14.144531 Z M 14.003906 14.144531 "/>
<path style=" stroke:none;fill-rule:nonzero;fill:rgb(9.411765%,21.176471%,31.764706%);fill-opacity:1;" d="M 26.644531 28.140625 L 1.65625 28.140625 C 1.554688 28.148438 1.457031 28.140625 1.363281 28.128906 C 1.265625 28.113281 1.167969 28.085938 1.078125 28.054688 C 0.984375 28.019531 0.898438 27.972656 0.816406 27.921875 C 0.734375 27.867188 0.65625 27.804688 0.589844 27.734375 C 0.519531 27.664062 0.457031 27.589844 0.402344 27.507812 C 0.351562 27.425781 0.304688 27.335938 0.269531 27.246094 C 0.234375 27.152344 0.210938 27.058594 0.195312 26.960938 C 0.183594 26.863281 0.175781 26.765625 0.183594 26.667969 C 0.1875 26.210938 0.210938 25.753906 0.257812 25.296875 C 0.304688 24.84375 0.375 24.390625 0.464844 23.941406 C 0.558594 23.496094 0.671875 23.050781 0.804688 22.613281 C 0.9375 22.175781 1.09375 21.746094 1.269531 21.324219 C 1.445312 20.902344 1.640625 20.488281 1.859375 20.085938 C 2.074219 19.683594 2.308594 19.292969 2.566406 18.914062 C 2.816406 18.53125 3.089844 18.164062 3.382812 17.8125 C 3.671875 17.457031 3.976562 17.121094 4.300781 16.796875 C 4.621094 16.472656 4.960938 16.164062 5.3125 15.875 C 5.667969 15.582031 6.03125 15.3125 6.410156 15.058594 C 6.789062 14.800781 7.179688 14.566406 7.582031 14.351562 C 7.984375 14.132812 8.398438 13.9375 8.820312 13.757812 C 9.238281 13.582031 9.667969 13.429688 10.105469 13.292969 C 10.539062 13.160156 10.984375 13.046875 11.429688 12.953125 C 11.878906 12.863281 12.328125 12.792969 12.78125 12.746094 C 13.238281 12.699219 13.691406 12.671875 14.148438 12.671875 C 14.605469 12.671875 15.0625 12.699219 15.515625 12.746094 C 15.96875 12.792969 16.417969 12.863281 16.867188 12.953125 C 17.316406 13.046875 17.757812 13.160156 18.195312 13.292969 C 18.628906 13.429688 19.058594 13.582031 19.480469 13.757812 C 19.902344 13.9375 20.3125 14.132812 20.714844 14.351562 C 21.117188 14.566406 21.507812 14.800781 21.886719 15.058594 C 22.265625 15.3125 22.632812 15.582031 22.984375 15.875 C 23.335938 16.164062 23.675781 16.472656 24 16.796875 C 24.320312 17.121094 24.628906 17.457031 24.917969 17.8125 C 25.207031 18.164062 25.480469 18.53125 25.734375 18.914062 C 25.988281 19.292969 26.222656 19.683594 26.441406 20.085938 C 26.65625 20.488281 26.851562 20.902344 27.027344 21.324219 C 27.203125 21.746094 27.359375 22.175781 27.496094 22.613281 C 27.628906 23.050781 27.742188 23.496094 27.832031 23.941406 C 27.921875 24.390625 27.992188 24.84375 28.039062 25.296875 C 28.085938 25.753906 28.113281 26.210938 28.113281 26.667969 C 28.113281 26.765625 28.105469 26.859375 28.085938 26.957031 C 28.066406 27.050781 28.039062 27.140625 28.003906 27.230469 C 27.964844 27.320312 27.917969 27.40625 27.867188 27.484375 C 27.8125 27.566406 27.75 27.640625 27.683594 27.710938 C 27.617188 27.777344 27.539062 27.839844 27.460938 27.890625 C 27.378906 27.945312 27.296875 27.992188 27.207031 28.027344 C 27.117188 28.066406 27.023438 28.09375 26.929688 28.113281 C 26.835938 28.128906 26.742188 28.140625 26.644531 28.140625 Z M 3.121094 25.195312 L 25.027344 25.195312 C 24.984375 24.863281 24.925781 24.535156 24.855469 24.210938 C 24.78125 23.886719 24.691406 23.566406 24.589844 23.246094 C 24.488281 22.929688 24.371094 22.617188 24.242188 22.3125 C 24.109375 22.003906 23.964844 21.703125 23.808594 21.410156 C 23.652344 21.117188 23.480469 20.832031 23.296875 20.554688 C 23.113281 20.277344 22.917969 20.007812 22.710938 19.746094 C 22.503906 19.488281 22.28125 19.238281 22.050781 18.996094 C 21.820312 18.757812 21.582031 18.527344 21.328125 18.308594 C 21.078125 18.089844 20.816406 17.882812 20.546875 17.6875 C 20.277344 17.496094 20 17.3125 19.710938 17.144531 C 19.425781 16.972656 19.132812 16.816406 18.832031 16.675781 C 18.53125 16.53125 18.222656 16.40625 17.914062 16.289062 C 17.601562 16.175781 17.285156 16.074219 16.960938 15.988281 C 16.640625 15.902344 16.316406 15.832031 15.988281 15.777344 C 15.660156 15.71875 15.332031 15.679688 15 15.652344 C 14.667969 15.625 14.335938 15.613281 14.003906 15.617188 C 13.671875 15.613281 13.34375 15.625 13.011719 15.652344 C 12.683594 15.679688 12.355469 15.722656 12.03125 15.777344 C 11.703125 15.835938 11.382812 15.90625 11.0625 15.992188 C 10.746094 16.078125 10.429688 16.179688 10.121094 16.296875 C 9.808594 16.410156 9.507812 16.539062 9.207031 16.683594 C 8.910156 16.824219 8.617188 16.980469 8.335938 17.152344 C 8.050781 17.324219 7.777344 17.503906 7.507812 17.699219 C 7.242188 17.894531 6.984375 18.101562 6.734375 18.320312 C 6.488281 18.539062 6.25 18.769531 6.019531 19.007812 C 5.792969 19.25 5.578125 19.5 5.375 19.757812 C 5.167969 20.019531 4.976562 20.289062 4.796875 20.566406 C 4.617188 20.84375 4.449219 21.128906 4.296875 21.421875 C 4.140625 21.714844 4 22.015625 3.875 22.320312 C 3.75 22.628906 3.636719 22.9375 3.535156 23.253906 C 3.4375 23.570312 3.355469 23.890625 3.285156 24.214844 C 3.21875 24.539062 3.164062 24.867188 3.125 25.195312 Z M 3.121094 25.195312 "/>
<path style=" stroke:none;fill-rule:nonzero;fill:rgb(100%,100%,100%);fill-opacity:1;" d="M 86.183594 7.808594 C 86.183594 8.015625 86.171875 8.222656 86.152344 8.429688 C 86.132812 8.636719 86.101562 8.84375 86.0625 9.046875 C 86.019531 9.25 85.96875 9.449219 85.910156 9.648438 C 85.851562 9.847656 85.78125 10.042969 85.703125 10.234375 C 85.621094 10.425781 85.535156 10.613281 85.4375 10.796875 C 85.339844 10.980469 85.230469 11.15625 85.117188 11.328125 C 85.003906 11.5 84.878906 11.667969 84.746094 11.828125 C 84.617188 11.988281 84.476562 12.144531 84.332031 12.289062 C 84.183594 12.4375 84.03125 12.574219 83.871094 12.707031 C 83.710938 12.839844 83.542969 12.960938 83.371094 13.078125 C 83.199219 13.191406 83.023438 13.300781 82.839844 13.398438 C 82.660156 13.496094 82.472656 13.582031 82.28125 13.664062 C 82.089844 13.742188 81.894531 13.8125 81.695312 13.871094 C 81.5 13.933594 81.296875 13.984375 81.09375 14.023438 C 80.890625 14.0625 80.6875 14.09375 80.480469 14.113281 C 80.273438 14.136719 80.066406 14.144531 79.859375 14.144531 C 79.652344 14.144531 79.445312 14.136719 79.242188 14.113281 C 79.035156 14.09375 78.832031 14.0625 78.628906 14.023438 C 78.425781 13.984375 78.222656 13.933594 78.027344 13.871094 C 77.828125 13.8125 77.632812 13.742188 77.441406 13.664062 C 77.25 13.582031 77.0625 13.496094 76.882812 13.398438 C 76.699219 13.300781 76.519531 13.191406 76.347656 13.078125 C 76.175781 12.960938 76.011719 12.839844 75.851562 12.707031 C 75.691406 12.574219 75.535156 12.4375 75.390625 12.289062 C 75.242188 12.144531 75.105469 11.988281 74.972656 11.828125 C 74.84375 11.667969 74.71875 11.5 74.605469 11.328125 C 74.488281 11.15625 74.382812 10.980469 74.285156 10.796875 C 74.1875 10.613281 74.101562 10.425781 74.019531 10.234375 C 73.941406 10.042969 73.871094 9.847656 73.8125 9.648438 C 73.75 9.449219 73.699219 9.25 73.660156 9.046875 C 73.621094 8.84375 73.589844 8.636719 73.570312 8.429688 C 73.550781 8.222656 73.539062 8.015625 73.539062 7.808594 C 73.539062 7.601562 73.550781 7.394531 73.570312 7.1875 C 73.589844 6.980469 73.621094 6.777344 73.660156 6.574219 C 73.699219 6.371094 73.75 6.167969 73.8125 5.96875 C 73.871094 5.773438 73.941406 5.578125 74.019531 5.386719 C 74.101562 5.195312 74.1875 5.003906 74.285156 4.824219 C 74.382812 4.640625 74.488281 4.460938 74.605469 4.289062 C 74.71875 4.117188 74.84375 3.949219 74.972656 3.789062 C 75.105469 3.628906 75.242188 3.476562 75.390625 3.328125 C 75.535156 3.183594 75.691406 3.042969 75.851562 2.914062 C 76.011719 2.78125 76.175781 2.65625 76.347656 2.542969 C 76.519531 2.425781 76.699219 2.320312 76.882812 2.222656 C 77.0625 2.125 77.25 2.035156 77.441406 1.957031 C 77.632812 1.875 77.828125 1.804688 78.027344 1.746094 C 78.222656 1.6875 78.425781 1.636719 78.628906 1.59375 C 78.832031 1.554688 79.035156 1.523438 79.242188 1.503906 C 79.445312 1.484375 79.652344 1.472656 79.859375 1.472656 C 80.066406 1.472656 80.273438 1.484375 80.480469 1.503906 C 80.6875 1.523438 80.890625 1.554688 81.09375 1.59375 C 81.296875 1.636719 81.5 1.6875 81.695312 1.746094 C 81.894531 1.804688 82.089844 1.875 82.28125 1.957031 C 82.472656 2.035156 82.660156 2.125 82.839844 2.222656 C 83.023438 2.320312 83.199219 2.425781 83.371094 2.542969 C 83.542969 2.65625 83.710938 2.78125 83.871094 2.914062 C 84.03125 3.042969 84.183594 3.183594 84.332031 3.328125 C 84.476562 3.476562 84.617188 3.628906 84.746094 3.789062 C 84.878906 3.949219 85.003906 4.117188 85.117188 4.289062 C 85.230469 4.460938 85.339844 4.640625 85.4375 4.824219 C 85.535156 5.003906 85.621094 5.195312 85.703125 5.386719 C 85.78125 5.578125 85.851562 5.773438 85.910156 5.96875 C 85.96875 6.167969 86.019531 6.371094 86.0625 6.574219 C 86.101562 6.777344 86.132812 6.980469 86.152344 7.1875 C 86.171875 7.394531 86.183594 7.601562 86.183594 7.808594 Z M 86.183594 7.808594 "/>
<g clip-path="url(#clip3)" clip-rule="nonzero">
<path style=" stroke:none;fill-rule:nonzero;fill:rgb(9.411765%,21.176471%,31.764706%);fill-opacity:1;" d="M 79.859375 15.617188 C 79.605469 15.617188 79.351562 15.601562 79.097656 15.574219 C 78.84375 15.546875 78.59375 15.511719 78.34375 15.460938 C 78.09375 15.410156 77.847656 15.34375 77.605469 15.269531 C 77.359375 15.195312 77.121094 15.109375 76.886719 15.007812 C 76.652344 14.910156 76.421875 14.800781 76.195312 14.679688 C 75.972656 14.558594 75.753906 14.429688 75.542969 14.285156 C 75.332031 14.144531 75.128906 13.992188 74.929688 13.828125 C 74.734375 13.667969 74.546875 13.496094 74.367188 13.316406 C 74.1875 13.136719 74.015625 12.945312 73.851562 12.75 C 73.691406 12.550781 73.539062 12.347656 73.398438 12.136719 C 73.257812 11.921875 73.125 11.703125 73.003906 11.480469 C 72.882812 11.253906 72.773438 11.023438 72.675781 10.789062 C 72.578125 10.554688 72.492188 10.3125 72.414062 10.070312 C 72.339844 9.824219 72.277344 9.578125 72.226562 9.328125 C 72.175781 9.078125 72.136719 8.824219 72.109375 8.570312 C 72.085938 8.320312 72.070312 8.066406 72.070312 7.808594 C 72.070312 7.554688 72.082031 7.296875 72.105469 7.042969 C 72.132812 6.789062 72.167969 6.535156 72.21875 6.285156 C 72.269531 6.035156 72.328125 5.785156 72.402344 5.542969 C 72.476562 5.296875 72.5625 5.058594 72.660156 4.820312 C 72.757812 4.585938 72.867188 4.351562 72.988281 4.128906 C 73.109375 3.902344 73.242188 3.683594 73.382812 3.46875 C 73.523438 3.257812 73.675781 3.054688 73.835938 2.855469 C 74 2.65625 74.167969 2.46875 74.351562 2.285156 C 74.53125 2.105469 74.71875 1.933594 74.917969 1.773438 C 75.113281 1.609375 75.320312 1.457031 75.53125 1.316406 C 75.742188 1.175781 75.960938 1.042969 76.1875 0.921875 C 76.410156 0.800781 76.644531 0.691406 76.878906 0.59375 C 77.113281 0.496094 77.355469 0.410156 77.597656 0.335938 C 77.84375 0.261719 78.089844 0.199219 78.339844 0.148438 C 78.589844 0.101562 78.84375 0.0625 79.097656 0.0390625 C 79.351562 0.0117188 79.605469 0 79.859375 0 C 80.117188 0 80.371094 0.0117188 80.625 0.0390625 C 80.878906 0.0625 81.128906 0.101562 81.378906 0.148438 C 81.628906 0.199219 81.875 0.261719 82.121094 0.335938 C 82.367188 0.410156 82.605469 0.496094 82.839844 0.59375 C 83.078125 0.691406 83.308594 0.800781 83.53125 0.921875 C 83.757812 1.042969 83.976562 1.175781 84.1875 1.316406 C 84.402344 1.457031 84.605469 1.609375 84.800781 1.773438 C 85 1.933594 85.1875 2.105469 85.367188 2.285156 C 85.550781 2.46875 85.71875 2.65625 85.882812 2.855469 C 86.046875 3.054688 86.195312 3.257812 86.335938 3.46875 C 86.480469 3.683594 86.609375 3.902344 86.730469 4.128906 C 86.851562 4.351562 86.960938 4.585938 87.058594 4.820312 C 87.15625 5.058594 87.242188 5.296875 87.316406 5.542969 C 87.390625 5.785156 87.453125 6.035156 87.5 6.285156 C 87.550781 6.535156 87.589844 6.789062 87.613281 7.042969 C 87.636719 7.296875 87.652344 7.554688 87.652344 7.808594 C 87.652344 8.066406 87.640625 8.320312 87.617188 8.574219 C 87.59375 8.832031 87.558594 9.082031 87.507812 9.335938 C 87.460938 9.585938 87.398438 9.835938 87.324219 10.082031 C 87.253906 10.324219 87.167969 10.566406 87.070312 10.804688 C 86.972656 11.039062 86.863281 11.273438 86.742188 11.5 C 86.625 11.726562 86.492188 11.945312 86.351562 12.15625 C 86.210938 12.371094 86.058594 12.574219 85.894531 12.773438 C 85.734375 12.972656 85.5625 13.160156 85.382812 13.34375 C 85.203125 13.523438 85.011719 13.695312 84.816406 13.859375 C 84.617188 14.019531 84.410156 14.171875 84.199219 14.316406 C 83.984375 14.457031 83.765625 14.585938 83.542969 14.707031 C 83.316406 14.828125 83.085938 14.9375 82.847656 15.035156 C 82.613281 15.132812 82.371094 15.21875 82.125 15.292969 C 81.882812 15.363281 81.632812 15.425781 81.382812 15.476562 C 81.132812 15.523438 80.878906 15.558594 80.625 15.582031 C 80.371094 15.609375 80.117188 15.617188 79.859375 15.617188 Z M 79.859375 2.945312 C 79.703125 2.949219 79.542969 2.957031 79.386719 2.972656 C 79.226562 2.992188 79.070312 3.015625 78.917969 3.046875 C 78.761719 3.078125 78.609375 3.117188 78.457031 3.164062 C 78.304688 3.214844 78.15625 3.265625 78.007812 3.328125 C 77.863281 3.390625 77.722656 3.457031 77.582031 3.535156 C 77.441406 3.609375 77.304688 3.691406 77.175781 3.78125 C 77.042969 3.867188 76.917969 3.960938 76.792969 4.0625 C 76.671875 4.164062 76.554688 4.269531 76.441406 4.382812 C 76.328125 4.496094 76.222656 4.613281 76.121094 4.734375 C 76.023438 4.859375 75.929688 4.984375 75.839844 5.117188 C 75.75 5.25 75.667969 5.386719 75.59375 5.523438 C 75.519531 5.664062 75.449219 5.808594 75.390625 5.953125 C 75.328125 6.101562 75.273438 6.25 75.226562 6.402344 C 75.179688 6.554688 75.140625 6.707031 75.109375 6.863281 C 75.078125 7.019531 75.054688 7.175781 75.035156 7.332031 C 75.019531 7.492188 75.011719 7.648438 75.007812 7.808594 C 75.007812 7.96875 75.015625 8.125 75.03125 8.285156 C 75.046875 8.445312 75.070312 8.601562 75.101562 8.757812 C 75.132812 8.914062 75.171875 9.066406 75.21875 9.21875 C 75.261719 9.371094 75.316406 9.523438 75.378906 9.667969 C 75.4375 9.816406 75.507812 9.960938 75.582031 10.101562 C 75.65625 10.242188 75.738281 10.378906 75.828125 10.511719 C 75.914062 10.644531 76.007812 10.769531 76.109375 10.894531 C 76.210938 11.015625 76.316406 11.132812 76.429688 11.246094 C 76.542969 11.359375 76.660156 11.464844 76.78125 11.566406 C 76.90625 11.667969 77.03125 11.761719 77.164062 11.851562 C 77.296875 11.941406 77.433594 12.023438 77.574219 12.097656 C 77.714844 12.171875 77.855469 12.238281 78.003906 12.300781 C 78.148438 12.363281 78.300781 12.414062 78.453125 12.460938 C 78.601562 12.507812 78.757812 12.546875 78.914062 12.578125 C 79.070312 12.609375 79.226562 12.632812 79.382812 12.648438 C 79.542969 12.664062 79.703125 12.671875 79.859375 12.671875 C 80.019531 12.671875 80.175781 12.664062 80.335938 12.648438 C 80.492188 12.632812 80.648438 12.609375 80.804688 12.578125 C 80.960938 12.546875 81.117188 12.507812 81.265625 12.460938 C 81.421875 12.414062 81.570312 12.363281 81.714844 12.300781 C 81.863281 12.238281 82.007812 12.171875 82.144531 12.097656 C 82.285156 12.023438 82.421875 11.941406 82.554688 11.851562 C 82.6875 11.761719 82.8125 11.667969 82.9375 11.566406 C 83.058594 11.464844 83.175781 11.359375 83.289062 11.246094 C 83.402344 11.132812 83.507812 11.015625 83.609375 10.894531 C 83.710938 10.769531 83.804688 10.644531 83.894531 10.511719 C 83.980469 10.378906 84.0625 10.242188 84.136719 10.101562 C 84.214844 9.960938 84.28125 9.816406 84.34375 9.667969 C 84.402344 9.523438 84.457031 9.371094 84.503906 9.21875 C 84.546875 9.066406 84.585938 8.914062 84.617188 8.757812 C 84.648438 8.601562 84.671875 8.445312 84.6875 8.285156 C 84.703125 8.125 84.710938 7.96875 84.710938 7.808594 C 84.710938 7.648438 84.707031 7.488281 84.691406 7.332031 C 84.679688 7.171875 84.65625 7.015625 84.625 6.855469 C 84.59375 6.699219 84.558594 6.542969 84.511719 6.390625 C 84.46875 6.238281 84.414062 6.089844 84.355469 5.941406 C 84.292969 5.792969 84.226562 5.648438 84.152344 5.507812 C 84.078125 5.367188 83.996094 5.230469 83.90625 5.097656 C 83.820312 4.964844 83.726562 4.835938 83.625 4.710938 C 83.523438 4.589844 83.414062 4.46875 83.304688 4.359375 C 83.191406 4.246094 83.074219 4.136719 82.949219 4.035156 C 82.828125 3.933594 82.699219 3.839844 82.566406 3.75 C 82.433594 3.664062 82.296875 3.582031 82.15625 3.507812 C 82.015625 3.433594 81.871094 3.363281 81.722656 3.304688 C 81.578125 3.242188 81.425781 3.191406 81.273438 3.144531 C 81.121094 3.097656 80.964844 3.0625 80.808594 3.03125 C 80.652344 3.003906 80.496094 2.980469 80.335938 2.964844 C 80.179688 2.949219 80.019531 2.945312 79.859375 2.945312 Z M 79.859375 2.945312 "/>
</g>
<path style=" stroke:none;fill-rule:nonzero;fill:rgb(94.117647%,38.039216%,31.764706%);fill-opacity:1;" d="M 79.859375 14.144531 C 79.449219 14.144531 79.042969 14.164062 78.636719 14.203125 C 78.226562 14.246094 77.824219 14.304688 77.421875 14.382812 C 77.019531 14.464844 76.625 14.5625 76.230469 14.683594 C 75.839844 14.800781 75.453125 14.9375 75.078125 15.09375 C 74.699219 15.25 74.328125 15.425781 73.96875 15.621094 C 73.605469 15.8125 73.257812 16.023438 72.914062 16.253906 C 72.574219 16.480469 72.246094 16.722656 71.929688 16.984375 C 71.613281 17.246094 71.3125 17.519531 71.023438 17.808594 C 70.730469 18.101562 70.457031 18.402344 70.199219 18.722656 C 69.9375 19.039062 69.695312 19.367188 69.46875 19.707031 C 69.238281 20.050781 69.03125 20.402344 68.835938 20.761719 C 68.644531 21.125 68.46875 21.496094 68.3125 21.875 C 68.15625 22.253906 68.019531 22.640625 67.902344 23.03125 C 67.78125 23.425781 67.683594 23.820312 67.601562 24.222656 C 67.523438 24.625 67.464844 25.03125 67.421875 25.441406 C 67.382812 25.847656 67.363281 26.257812 67.363281 26.667969 L 92.355469 26.667969 C 92.359375 26.257812 92.34375 25.847656 92.304688 25.4375 C 92.269531 25.027344 92.210938 24.621094 92.132812 24.21875 C 92.054688 23.8125 91.957031 23.414062 91.839844 23.019531 C 91.726562 22.625 91.585938 22.238281 91.433594 21.859375 C 91.277344 21.476562 91.105469 21.105469 90.910156 20.742188 C 90.71875 20.378906 90.507812 20.027344 90.28125 19.683594 C 90.054688 19.34375 89.8125 19.011719 89.550781 18.695312 C 89.292969 18.375 89.015625 18.074219 88.726562 17.78125 C 88.4375 17.492188 88.132812 17.214844 87.816406 16.957031 C 87.496094 16.695312 87.167969 16.449219 86.828125 16.222656 C 86.484375 15.996094 86.132812 15.785156 85.769531 15.59375 C 85.410156 15.398438 85.039062 15.226562 84.660156 15.070312 C 84.277344 14.914062 83.890625 14.777344 83.5 14.660156 C 83.105469 14.542969 82.707031 14.445312 82.304688 14.367188 C 81.902344 14.289062 81.496094 14.234375 81.085938 14.195312 C 80.679688 14.160156 80.269531 14.140625 79.859375 14.144531 Z M 79.859375 14.144531 "/>
<g clip-path="url(#clip4)" clip-rule="nonzero">
<path style=" stroke:none;fill-rule:nonzero;fill:rgb(3.529412%,20%,24.705882%);fill-opacity:1;" d="M 148.796875 65.125 L 120.378906 65.125 C 118.953125 65.125 117.792969 63.960938 117.792969 62.535156 L 117.792969 36.644531 L 151.378906 36.644531 L 151.378906 62.535156 C 151.378906 63.960938 150.21875 65.125 148.796875 65.125 Z M 135.878906 72.894531 L 94.542969 72.894531 L 94.542969 65.125 C 95.0625 65.125 95.582031 65.105469 96.097656 65.058594 C 96.9375 64.980469 97.660156 64.4375 97.988281 63.628906 L 98.832031 61.519531 C 99.847656 61.214844 100.820312 60.8125 101.746094 60.304688 L 103.84375 61.203125 C 104.628906 61.539062 105.53125 61.414062 106.183594 60.867188 C 106.582031 60.539062 106.960938 60.183594 107.328125 59.816406 C 107.695312 59.445312 108.050781 59.066406 108.382812 58.667969 C 108.921875 58.015625 109.050781 57.113281 108.710938 56.320312 L 107.816406 54.222656 C 108.324219 53.289062 108.726562 52.316406 109.027344 51.296875 L 111.132812 50.453125 C 111.140625 50.449219 111.140625 50.449219 111.140625 50.449219 C 111.941406 50.125 112.480469 49.402344 112.5625 48.558594 C 112.605469 48.042969 112.625 47.519531 112.625 47 C 112.625 46.480469 112.605469 45.957031 112.5625 45.441406 C 112.480469 44.597656 111.941406 43.875 111.132812 43.546875 L 109.027344 42.703125 C 108.726562 41.683594 108.324219 40.710938 107.816406 39.777344 L 108.710938 37.679688 C 109.050781 36.886719 108.921875 35.984375 108.378906 35.332031 C 108.050781 34.933594 107.695312 34.554688 107.328125 34.183594 C 106.960938 33.816406 106.582031 33.460938 106.183594 33.128906 C 105.53125 32.585938 104.628906 32.460938 103.84375 32.796875 L 101.746094 33.695312 C 100.820312 33.1875 99.847656 32.785156 98.832031 32.480469 L 97.984375 30.367188 C 97.660156 29.5625 96.9375 29.019531 96.097656 28.941406 C 95.582031 28.894531 95.0625 28.871094 94.542969 28.871094 L 94.542969 21.105469 L 135.878906 21.105469 L 135.878906 23.695312 L 120.378906 23.695312 C 117.527344 23.695312 115.210938 26.015625 115.210938 28.875 L 115.210938 62.535156 C 115.210938 65.394531 117.527344 67.714844 120.378906 67.714844 L 135.878906 67.714844 Z M 133.296875 83.25 L 97.125 83.25 C 95.703125 83.25 94.542969 82.089844 94.542969 80.660156 L 94.542969 75.484375 L 135.878906 75.484375 L 135.878906 80.660156 C 135.878906 82.089844 134.71875 83.25 133.296875 83.25 Z M 88.089844 57.75 C 87.730469 57.535156 87.289062 57.5 86.90625 57.664062 L 84.398438 58.746094 C 84.117188 58.503906 83.84375 58.253906 83.582031 57.984375 C 83.320312 57.722656 83.0625 57.449219 82.820312 57.164062 L 83.898438 54.644531 C 84.0625 54.261719 84.03125 53.828125 83.8125 53.46875 C 83.167969 52.394531 82.6875 51.238281 82.386719 50.023438 C 82.285156 49.621094 81.996094 49.292969 81.613281 49.132812 L 79.082031 48.117188 C 79.054688 47.746094 79.039062 47.375 79.039062 47 C 79.039062 46.625 79.054688 46.253906 79.082031 45.882812 L 81.613281 44.867188 C 81.996094 44.707031 82.285156 44.378906 82.386719 43.976562 C 82.6875 42.761719 83.167969 41.605469 83.8125 40.53125 C 84.03125 40.171875 84.0625 39.730469 83.898438 39.347656 L 82.820312 36.835938 C 83.0625 36.550781 83.320312 36.277344 83.582031 36.015625 C 83.84375 35.746094 84.117188 35.496094 84.398438 35.253906 L 86.914062 36.335938 C 87.289062 36.496094 87.730469 36.464844 88.089844 36.25 C 89.15625 35.601562 90.3125 35.121094 91.523438 34.816406 C 91.929688 34.714844 92.257812 34.425781 92.414062 34.042969 L 93.425781 31.503906 C 94.164062 31.449219 94.914062 31.449219 95.65625 31.503906 L 96.671875 34.042969 C 96.828125 34.425781 97.15625 34.714844 97.558594 34.816406 C 98.769531 35.121094 99.925781 35.601562 100.996094 36.25 C 101.355469 36.464844 101.789062 36.496094 102.171875 36.335938 L 104.683594 35.253906 C 104.96875 35.496094 105.238281 35.746094 105.5 36.015625 C 105.769531 36.277344 106.023438 36.550781 106.265625 36.835938 L 105.183594 39.347656 C 105.023438 39.730469 105.054688 40.171875 105.269531 40.53125 C 105.914062 41.605469 106.394531 42.761719 106.699219 43.976562 C 106.796875 44.378906 107.085938 44.707031 107.46875 44.867188 L 110.003906 45.882812 C 110.027344 46.253906 110.042969 46.625 110.042969 47 C 110.042969 47.375 110.027344 47.746094 110.003906 48.117188 L 107.46875 49.132812 C 107.085938 49.292969 106.796875 49.621094 106.699219 50.023438 C 106.394531 51.238281 105.914062 52.394531 105.269531 53.46875 C 105.054688 53.828125 105.023438 54.261719 105.183594 54.644531 L 106.265625 57.164062 C 106.023438 57.449219 105.769531 57.722656 105.5 57.984375 C 105.238281 58.253906 104.96875 58.503906 104.683594 58.746094 L 102.175781 57.664062 C 101.789062 57.5 101.355469 57.535156 100.996094 57.75 C 99.925781 58.398438 98.769531 58.878906 97.558594 59.183594 C 97.15625 59.285156 96.828125 59.574219 96.671875 59.957031 L 95.65625 62.496094 C 94.921875 62.550781 94.167969 62.550781 93.425781 62.496094 L 92.414062 59.957031 C 92.257812 59.574219 91.929688 59.285156 91.523438 59.183594 C 90.3125 58.878906 89.15625 58.398438 88.089844 57.75 Z M 97.125 10.75 L 133.296875 10.75 C 134.71875 10.75 135.878906 11.910156 135.878906 13.339844 L 135.878906 18.515625 L 94.542969 18.515625 L 94.542969 13.339844 C 94.542969 11.910156 95.703125 10.75 97.125 10.75 Z M 151.378906 28.875 L 151.378906 34.054688 L 117.792969 34.054688 L 117.792969 28.875 C 117.792969 27.449219 118.953125 26.285156 120.378906 26.285156 L 148.796875 26.285156 C 150.21875 26.285156 151.378906 27.449219 151.378906 28.875 Z M 148.796875 23.695312 L 138.460938 23.695312 L 138.460938 13.339844 C 138.460938 10.480469 136.148438 8.160156 133.296875 8.160156 L 97.125 8.160156 C 94.273438 8.160156 91.957031 10.480469 91.957031 13.339844 L 91.957031 29.320312 C 91.585938 29.570312 91.277344 29.925781 91.097656 30.371094 L 90.253906 32.480469 C 89.238281 32.785156 88.261719 33.1875 87.335938 33.695312 L 85.242188 32.796875 C 84.449219 32.460938 83.550781 32.585938 82.902344 33.132812 C 82.503906 33.460938 82.125 33.816406 81.757812 34.183594 C 81.386719 34.554688 81.035156 34.933594 80.707031 35.332031 C 80.160156 35.984375 80.035156 36.886719 80.375 37.679688 L 81.269531 39.777344 C 80.761719 40.710938 80.359375 41.683594 80.054688 42.703125 L 77.945312 43.550781 C 77.144531 43.875 76.601562 44.597656 76.527344 45.441406 C 76.476562 45.957031 76.457031 46.480469 76.457031 47 C 76.457031 47.519531 76.476562 48.042969 76.527344 48.558594 C 76.601562 49.402344 77.144531 50.125 77.949219 50.453125 L 80.054688 51.296875 C 80.359375 52.316406 80.761719 53.289062 81.269531 54.222656 L 80.375 56.320312 C 80.035156 57.113281 80.160156 58.015625 80.707031 58.667969 C 81.035156 59.066406 81.386719 59.445312 81.757812 59.816406 C 82.125 60.183594 82.503906 60.539062 82.902344 60.871094 C 83.550781 61.414062 84.449219 61.539062 85.242188 61.203125 L 87.335938 60.304688 C 88.261719 60.8125 89.238281 61.214844 90.253906 61.519531 L 91.101562 63.632812 C 91.277344 64.078125 91.585938 64.429688 91.957031 64.679688 L 91.957031 80.660156 C 91.957031 83.519531 94.273438 85.839844 97.125 85.839844 L 133.296875 85.839844 C 136.148438 85.839844 138.460938 83.519531 138.460938 80.660156 L 138.460938 67.714844 L 148.796875 67.714844 C 151.648438 67.714844 153.964844 65.394531 153.964844 62.535156 L 153.964844 28.875 C 153.964844 26.015625 151.648438 23.695312 148.796875 23.695312 "/>
</g>
<path style=" stroke:none;fill-rule:nonzero;fill:rgb(3.529412%,20%,24.705882%);fill-opacity:1;" d="M 86.792969 47 C 86.792969 43.628906 88.957031 40.753906 91.957031 39.683594 L 91.957031 42.539062 C 90.417969 43.4375 89.375 45.09375 89.375 47 C 89.375 48.90625 90.417969 50.5625 91.957031 51.460938 L 91.957031 54.316406 C 88.957031 53.246094 86.792969 50.371094 86.792969 47 Z M 94.542969 44.410156 C 95.964844 44.410156 97.125 45.574219 97.125 47 C 97.125 48.425781 95.964844 49.589844 94.542969 49.589844 C 93.117188 49.589844 91.957031 48.425781 91.957031 47 C 91.957031 45.574219 93.117188 44.410156 94.542969 44.410156 Z M 102.292969 47 C 102.292969 51.285156 98.816406 54.769531 94.542969 54.769531 L 94.542969 52.179688 C 97.394531 52.179688 99.710938 49.855469 99.710938 47 C 99.710938 44.144531 97.394531 41.820312 94.542969 41.820312 L 94.542969 39.230469 C 98.816406 39.230469 102.292969 42.714844 102.292969 47 Z M 104.875 47 C 104.875 41.289062 100.238281 36.644531 94.542969 36.644531 C 88.84375 36.644531 84.207031 41.289062 84.207031 47 C 84.207031 52.710938 88.84375 57.355469 94.542969 57.355469 C 100.238281 57.355469 104.875 52.710938 104.875 47 "/>
<path style=" stroke:none;fill-rule:nonzero;fill:rgb(3.529412%,20%,24.705882%);fill-opacity:1;" d="M 122.960938 47 L 122.960938 41.820312 L 146.214844 41.820312 L 146.21875 47 Z M 146.214844 39.230469 L 122.960938 39.230469 C 121.539062 39.230469 120.378906 40.394531 120.378906 41.820312 L 120.378906 47 C 120.378906 48.425781 121.539062 49.589844 122.960938 49.589844 L 146.214844 49.589844 C 147.636719 49.589844 148.796875 48.425781 148.796875 47 L 148.796875 41.820312 C 148.796875 40.394531 147.636719 39.230469 146.214844 39.230469 "/>
<path style=" stroke:none;fill-rule:nonzero;fill:rgb(3.529412%,20%,24.705882%);fill-opacity:1;" d="M 110.042969 15.925781 L 111.335938 15.925781 C 112.046875 15.925781 112.625 15.347656 112.625 14.632812 C 112.625 13.921875 112.046875 13.339844 111.335938 13.339844 L 110.042969 13.339844 C 109.332031 13.339844 108.75 13.921875 108.75 14.632812 C 108.75 15.347656 109.332031 15.925781 110.042969 15.925781 "/>
<path style=" stroke:none;fill-rule:nonzero;fill:rgb(3.529412%,20%,24.705882%);fill-opacity:1;" d="M 116.5 15.925781 L 120.378906 15.925781 C 121.089844 15.925781 121.667969 15.347656 121.667969 14.632812 C 121.667969 13.921875 121.089844 13.339844 120.378906 13.339844 L 116.5 13.339844 C 115.789062 13.339844 115.210938 13.921875 115.210938 14.632812 C 115.210938 15.347656 115.789062 15.925781 116.5 15.925781 "/>
<path style=" stroke:none;fill-rule:nonzero;fill:rgb(3.529412%,20%,24.705882%);fill-opacity:1;" d="M 117.792969 78.074219 L 112.625 78.074219 C 111.914062 78.074219 111.335938 78.652344 111.335938 79.367188 C 111.335938 80.078125 111.914062 80.660156 112.625 80.660156 L 117.792969 80.660156 C 118.503906 80.660156 119.085938 80.078125 119.085938 79.367188 C 119.085938 78.652344 118.503906 78.074219 117.792969 78.074219 "/>
<path style=" stroke:none;fill-rule:nonzero;fill:rgb(3.529412%,20%,24.705882%);fill-opacity:1;" d="M 122.960938 28.875 L 121.667969 28.875 C 120.957031 28.875 120.378906 29.457031 120.378906 30.167969 C 120.378906 30.882812 120.957031 31.464844 121.667969 31.464844 L 122.960938 31.464844 C 123.671875 31.464844 124.253906 30.882812 124.253906 30.167969 C 124.253906 29.457031 123.671875 28.875 122.960938 28.875 "/>
<path style=" stroke:none;fill-rule:nonzero;fill:rgb(3.529412%,20%,24.705882%);fill-opacity:1;" d="M 129.417969 28.875 L 128.128906 28.875 C 127.417969 28.875 126.835938 29.457031 126.835938 30.167969 C 126.835938 30.882812 127.417969 31.464844 128.128906 31.464844 L 129.417969 31.464844 C 130.132812 31.464844 130.710938 30.882812 130.710938 30.167969 C 130.710938 29.457031 130.132812 28.875 129.417969 28.875 "/>
<path style=" stroke:none;fill-rule:nonzero;fill:rgb(3.529412%,20%,24.705882%);fill-opacity:1;" d="M 141.046875 31.464844 L 147.503906 31.464844 C 148.214844 31.464844 148.796875 30.882812 148.796875 30.167969 C 148.796875 29.457031 148.214844 28.875 147.503906 28.875 L 141.046875 28.875 C 140.335938 28.875 139.753906 29.457031 139.753906 30.167969 C 139.753906 30.882812 140.335938 31.464844 141.046875 31.464844 "/>
<path style=" stroke:none;fill-rule:nonzero;fill:rgb(3.529412%,20%,24.705882%);fill-opacity:1;" d="M 135.878906 52.179688 L 124.253906 52.179688 C 123.542969 52.179688 122.960938 52.761719 122.960938 53.472656 C 122.960938 54.1875 123.542969 54.769531 124.253906 54.769531 L 135.878906 54.769531 C 136.589844 54.769531 137.171875 54.1875 137.171875 53.472656 C 137.171875 52.761719 136.589844 52.179688 135.878906 52.179688 "/>
<path style=" stroke:none;fill-rule:nonzero;fill:rgb(3.529412%,20%,24.705882%);fill-opacity:1;" d="M 133.296875 57.355469 L 124.253906 57.355469 C 123.542969 57.355469 122.960938 57.9375 122.960938 58.652344 C 122.960938 59.367188 123.542969 59.945312 124.253906 59.945312 L 133.296875 59.945312 C 134.007812 59.945312 134.585938 59.367188 134.585938 58.652344 C 134.585938 57.9375 134.007812 57.355469 133.296875 57.355469 "/>
<path style=" stroke:none;fill-rule:nonzero;fill:rgb(3.529412%,20%,24.705882%);fill-opacity:1;" d="M 144.921875 52.179688 L 141.046875 52.179688 C 140.335938 52.179688 139.753906 52.761719 139.753906 53.472656 C 139.753906 54.1875 140.335938 54.769531 141.046875 54.769531 L 144.921875 54.769531 C 145.632812 54.769531 146.214844 54.1875 146.214844 53.472656 C 146.214844 52.761719 145.632812 52.179688 144.921875 52.179688 "/>
<path style=" stroke:none;fill-rule:nonzero;fill:rgb(3.529412%,20%,24.705882%);fill-opacity:1;" d="M 142.335938 57.355469 L 138.460938 57.355469 C 137.75 57.355469 137.171875 57.9375 137.171875 58.652344 C 137.171875 59.367188 137.75 59.945312 138.460938 59.945312 L 142.335938 59.945312 C 143.050781 59.945312 143.628906 59.367188 143.628906 58.652344 C 143.628906 57.9375 143.050781 57.355469 142.335938 57.355469 "/>
</g>
</svg>
