<?xml version="1.0" encoding="UTF-8"?>
<svg xmlns="http://www.w3.org/2000/svg" xmlns:xlink="http://www.w3.org/1999/xlink" width="94px" height="94px" viewBox="0 0 94 94" version="1.1">
<defs>
<clipPath id="clip1">
  <path d="M 8.960938 10.996094 L 79.339844 10.996094 L 79.339844 81.375 L 8.960938 81.375 Z M 8.960938 10.996094 "/>
</clipPath>
<clipPath id="clip2">
  <path d="M 37.359375 5.539062 L 90.09375 5.539062 L 90.09375 75.589844 L 37.359375 75.589844 Z M 37.359375 5.539062 "/>
</clipPath>
<clipPath id="clip3">
  <path d="M 37.359375 5.539062 L 90.09375 5.539062 L 90.09375 75.589844 L 37.359375 75.589844 Z M 37.359375 5.539062 "/>
</clipPath>
</defs>
<g id="surface1">
<path style=" stroke:none;fill-rule:nonzero;fill:rgb(19.607843%,88.627451%,66.27451%);fill-opacity:1;" d="M 47 0 C 21.042969 0 0 21.042969 0 47 C 0 72.957031 21.042969 94 47 94 C 72.957031 94 94 72.957031 94 47 C 94 21.042969 72.957031 0 47 0 "/>
<g clip-path="url(#clip1)" clip-rule="nonzero">
<path style=" stroke:none;fill-rule:nonzero;fill:rgb(6.27451%,5.882353%,5.098039%);fill-opacity:1;" d="M 44.148438 10.996094 C 63.582031 10.996094 79.339844 25.109375 79.339844 42.335938 C 79.339844 53.152344 70.539062 61.769531 59.726562 61.769531 L 52.945312 61.769531 C 49.648438 61.769531 47.085938 64.328125 47.085938 67.628906 C 47.085938 69.097656 47.628906 70.378906 48.546875 71.476562 C 49.464844 72.578125 50.007812 74.046875 50.007812 75.507812 C 50.007812 78.808594 47.449219 81.375 44.148438 81.375 C 24.722656 81.375 8.960938 65.609375 8.960938 46.183594 C 8.960938 26.753906 24.722656 10.996094 44.148438 10.996094 Z M 22.707031 46.183594 C 26.003906 46.183594 28.574219 43.625 28.574219 40.320312 C 28.574219 37.019531 26.003906 34.457031 22.707031 34.457031 C 19.40625 34.457031 16.84375 37.019531 16.84375 40.320312 C 16.84375 43.625 19.40625 46.183594 22.707031 46.183594 Z M 34.441406 30.609375 C 37.738281 30.609375 40.300781 28.042969 40.300781 24.742188 C 40.300781 21.441406 37.738281 18.882812 34.441406 18.882812 C 31.136719 18.882812 28.574219 21.441406 28.574219 24.742188 C 28.574219 28.042969 31.136719 30.609375 34.441406 30.609375 Z M 53.863281 30.609375 C 57.164062 30.609375 59.726562 28.042969 59.726562 24.742188 C 59.726562 21.441406 57.164062 18.882812 53.863281 18.882812 C 50.558594 18.882812 47.996094 21.441406 47.996094 24.742188 C 47.996094 28.042969 50.558594 30.609375 53.863281 30.609375 Z M 65.59375 46.183594 C 68.890625 46.183594 71.457031 43.625 71.457031 40.320312 C 71.457031 37.019531 68.890625 34.457031 65.59375 34.457031 C 62.292969 34.457031 59.726562 37.019531 59.726562 40.320312 C 59.726562 43.625 62.292969 46.183594 65.59375 46.183594 "/>
</g>
<g clip-path="url(#clip2)" clip-rule="nonzero">
<path style=" stroke:none;fill-rule:nonzero;fill:rgb(100%,100%,100%);fill-opacity:1;" d="M 90.058594 6.800781 C 90.058594 6.867188 90.058594 6.933594 90.058594 7 C 89.277344 8.621094 88.519531 10.253906 87.710938 11.859375 C 84.878906 17.503906 81.714844 22.953125 78.285156 28.25 C 74.878906 33.507812 71.230469 38.589844 67.355469 43.511719 C 64.613281 47 61.761719 50.398438 58.804688 53.703125 C 56.894531 55.839844 54.949219 57.945312 52.929688 59.976562 C 51.828125 61.089844 50.703125 62.179688 49.585938 63.273438 C 49.488281 63.367188 49.457031 63.449219 49.476562 63.585938 C 49.742188 65.375 49.441406 67.082031 48.679688 68.71875 C 48.054688 70.058594 47.183594 71.230469 46.164062 72.296875 C 45.0625 73.449219 43.832031 74.449219 42.476562 75.289062 C 42.457031 75.304688 42.441406 75.320312 42.421875 75.324219 C 42.339844 75.332031 42.261719 75.339844 42.179688 75.347656 C 42.179688 75.265625 42.179688 75.1875 42.179688 75.09375 C 42.15625 75.105469 42.105469 75.125 42.054688 75.148438 C 40.589844 75.84375 38.964844 75.476562 37.972656 74.238281 C 37.628906 73.808594 37.472656 73.308594 37.40625 72.773438 C 37.398438 72.691406 37.382812 72.609375 37.371094 72.53125 C 37.371094 72.285156 37.371094 72.042969 37.371094 71.800781 C 37.425781 71.40625 37.480469 71.011719 37.539062 70.621094 C 37.5625 70.492188 37.597656 70.363281 37.625 70.234375 C 37.648438 70.140625 37.664062 70.03125 37.792969 70.050781 C 37.9375 70.070312 37.902344 70.191406 37.894531 70.285156 C 37.886719 70.464844 37.871094 70.640625 37.859375 70.816406 C 37.84375 71.09375 37.910156 71.359375 38.066406 71.589844 C 38.257812 71.878906 38.472656 72.152344 38.691406 72.421875 C 38.816406 72.570312 38.984375 72.601562 39.15625 72.496094 C 39.324219 72.394531 39.484375 72.269531 39.617188 72.125 C 40.257812 71.433594 40.652344 70.601562 40.957031 69.722656 C 41.269531 68.839844 41.535156 67.9375 41.863281 67.058594 C 42.304688 65.867188 42.878906 64.742188 43.695312 63.753906 C 44.359375 62.949219 45.167969 62.339844 46.144531 61.964844 C 46.324219 61.898438 46.519531 61.871094 46.703125 61.808594 C 46.777344 61.78125 46.863281 61.726562 46.898438 61.660156 C 49.878906 55.777344 53.261719 50.128906 56.890625 44.625 C 60.585938 39.023438 64.53125 33.597656 68.648438 28.300781 C 72.511719 23.335938 76.523438 18.492188 80.671875 13.765625 C 82.953125 11.167969 85.269531 8.605469 87.652344 6.097656 C 87.71875 6.03125 87.777344 5.953125 87.847656 5.898438 C 88.007812 5.773438 88.171875 5.65625 88.335938 5.539062 C 88.433594 5.539062 88.53125 5.539062 88.632812 5.539062 C 88.640625 5.546875 88.648438 5.554688 88.660156 5.558594 C 89.328125 5.746094 89.820312 6.132812 90.058594 6.800781 "/>
</g>
<path style=" stroke:none;fill-rule:nonzero;fill:rgb(3.529412%,20%,24.705882%);fill-opacity:1;" d="M 51.625 54.660156 L 47.429688 61.691406 L 48.46875 62.335938 C 48.46875 62.335938 49.6875 57.980469 51.625 54.660156 Z M 57.160156 47.46875 C 57.527344 46.820312 66.011719 34.1875 66.011719 34.1875 C 64.628906 34.925781 56.882812 46.359375 56.421875 46.914062 Z M 88.71875 5.648438 C 88.71875 5.648438 70.738281 27.917969 69.492188 30.40625 L 88.964844 5.785156 Z M 46.914062 61.792969 L 49.289062 63.28125 C 49.269531 63.300781 49.253906 63.3125 49.253906 63.3125 C 50.535156 70.472656 42.226562 75.21875 42.226562 75.21875 C 42.433594 75.023438 42.464844 74.703125 42.464844 74.703125 C 40.597656 75.914062 38.753906 75.207031 37.890625 73.925781 C 37.027344 72.648438 37.726562 70.136719 37.726562 70.136719 C 37.625 70.96875 37.554688 71.382812 38.523438 72.453125 C 39.019531 73.003906 39.644531 72.234375 39.925781 71.875 C 41.101562 70.359375 41.378906 68.289062 42.132812 66.5625 C 42.820312 64.980469 43.726562 63.410156 45.242188 62.492188 C 45.601562 62.277344 45.984375 62.09375 46.382812 61.960938 C 46.4375 61.945312 46.871094 61.875 46.890625 61.839844 C 46.898438 61.824219 46.90625 61.808594 46.914062 61.792969 "/>
<g clip-path="url(#clip3)" clip-rule="nonzero">
<path style=" stroke:none;fill-rule:nonzero;fill:rgb(10.196078%,24.313725%,31.764706%);fill-opacity:1;" d="M 42.777344 74.617188 C 42.921875 74.574219 43.058594 74.507812 43.214844 74.484375 C 43.03125 74.609375 42.847656 74.730469 42.660156 74.859375 C 42.621094 74.722656 42.652344 74.65625 42.777344 74.617188 Z M 37.933594 72.015625 C 38.128906 72.707031 38.417969 73.355469 38.898438 73.902344 C 39.617188 74.71875 40.535156 75.011719 41.597656 74.898438 C 41.726562 74.886719 41.855469 74.863281 41.988281 74.863281 C 41.707031 75.035156 41.398438 75.136719 41.078125 75.183594 C 39.828125 75.371094 38.832031 74.9375 38.082031 73.929688 C 37.839844 73.605469 37.742188 73.226562 37.6875 72.835938 C 37.621094 72.390625 37.628906 71.949219 37.679688 71.503906 C 37.695312 71.5 37.707031 71.496094 37.722656 71.492188 C 37.792969 71.664062 37.886719 71.832031 37.933594 72.015625 Z M 46.0625 62.730469 C 44.609375 63.632812 43.542969 64.882812 42.789062 66.410156 C 42.382812 67.234375 41.992188 68.066406 41.589844 68.898438 C 41.566406 68.945312 41.539062 68.992188 41.484375 69.023438 C 41.617188 68.609375 41.746094 68.195312 41.882812 67.785156 C 42.316406 66.488281 42.882812 65.261719 43.710938 64.164062 C 44.386719 63.265625 45.234375 62.585938 46.296875 62.195312 C 46.480469 62.125 46.679688 62.085938 46.875 62.050781 C 46.933594 62.039062 47.003906 62.082031 47.101562 62.109375 C 46.722656 62.335938 46.390625 62.523438 46.0625 62.730469 Z M 45.472656 72.570312 C 45.492188 72.539062 45.507812 72.507812 45.53125 72.480469 C 46.46875 71.300781 47.152344 69.984375 47.65625 68.566406 C 47.964844 67.6875 48.410156 66.886719 49.074219 66.21875 C 49.105469 66.191406 49.136719 66.160156 49.167969 66.132812 C 49.179688 66.140625 49.195312 66.152344 49.207031 66.160156 C 48.753906 68.753906 47.324219 70.785156 45.472656 72.570312 Z M 46.761719 63.441406 C 45.894531 64.191406 45.042969 64.964844 44.421875 65.9375 C 44.003906 66.59375 43.652344 67.292969 43.285156 67.976562 C 42.839844 68.8125 42.394531 69.648438 41.785156 70.375 C 41.558594 70.640625 41.273438 70.859375 41.003906 71.082031 C 40.90625 71.160156 40.765625 71.183594 40.644531 71.230469 C 40.628906 71.210938 40.613281 71.191406 40.59375 71.171875 C 40.699219 71.03125 40.777344 70.863281 40.90625 70.753906 C 41.378906 70.363281 41.742188 69.882812 42.042969 69.359375 C 42.457031 68.628906 42.898438 67.90625 43.234375 67.140625 C 43.847656 65.734375 44.808594 64.621094 45.988281 63.671875 C 46.453125 63.296875 46.925781 62.929688 47.386719 62.554688 C 47.523438 62.4375 47.636719 62.40625 47.773438 62.582031 C 47.433594 62.871094 47.097656 63.152344 46.761719 63.441406 Z M 45.710938 63.738281 C 45.292969 64.101562 44.902344 64.492188 44.507812 64.878906 C 43.941406 65.429688 43.613281 66.132812 43.253906 66.820312 C 42.808594 67.667969 42.363281 68.511719 41.890625 69.339844 C 41.683594 69.699219 41.398438 70.007812 41.152344 70.339844 C 41.105469 70.40625 41.0625 70.476562 41.019531 70.546875 C 40.996094 70.527344 40.972656 70.507812 40.949219 70.488281 C 41.039062 70.269531 41.097656 70.035156 41.21875 69.835938 C 41.777344 68.917969 42.207031 67.9375 42.664062 66.96875 C 43.136719 65.96875 43.6875 65.019531 44.457031 64.214844 C 45.210938 63.417969 46.101562 62.8125 47.066406 62.300781 C 47.242188 62.207031 47.242188 62.207031 47.410156 62.34375 C 46.835938 62.8125 46.261719 63.261719 45.710938 63.738281 Z M 40.488281 71.398438 C 40.503906 71.378906 40.542969 71.363281 40.570312 71.359375 C 41.027344 71.316406 41.359375 71.054688 41.652344 70.738281 C 42.230469 70.113281 42.667969 69.386719 43.074219 68.644531 C 43.429688 68 43.761719 67.347656 44.109375 66.699219 C 44.667969 65.648438 45.457031 64.789062 46.335938 64.003906 C 46.796875 63.589844 47.273438 63.191406 47.742188 62.789062 C 47.941406 62.617188 47.945312 62.621094 48.160156 62.820312 C 47.851562 63.117188 47.53125 63.40625 47.230469 63.714844 C 46.625 64.34375 46.003906 64.960938 45.445312 65.628906 C 45.089844 66.050781 44.816406 66.546875 44.539062 67.03125 C 43.894531 68.152344 43.265625 69.28125 42.457031 70.300781 C 42.078125 70.777344 41.667969 71.226562 41.164062 71.574219 C 40.800781 71.824219 40.503906 71.933594 40.125 71.957031 C 40.253906 71.757812 40.367188 71.578125 40.488281 71.398438 Z M 47.652344 63.992188 C 46.496094 65.175781 45.453125 66.445312 44.722656 67.945312 C 44.355469 68.691406 44.023438 69.457031 43.546875 70.152344 C 43.144531 70.742188 42.691406 71.289062 42.117188 71.726562 C 41.574219 72.140625 40.960938 72.394531 40.289062 72.492188 C 40.105469 72.515625 39.917969 72.496094 39.726562 72.460938 C 39.867188 72.292969 39.933594 72.085938 40.214844 72.078125 C 40.671875 72.066406 41.058594 71.832031 41.414062 71.5625 C 41.992188 71.113281 42.453125 70.554688 42.878906 69.96875 C 43.59375 68.992188 44.195312 67.949219 44.761719 66.886719 C 45.238281 65.988281 45.898438 65.242188 46.601562 64.527344 C 47.09375 64.035156 47.597656 63.554688 48.101562 63.070312 C 48.308594 62.871094 48.308594 62.871094 48.578125 63.070312 C 48.261719 63.382812 47.949219 63.679688 47.652344 63.992188 Z M 38.324219 72.453125 C 38.800781 73.238281 39.414062 73.882812 40.304688 74.183594 C 41.570312 74.613281 42.734375 74.34375 43.796875 73.574219 C 44.597656 72.988281 45.171875 72.203125 45.667969 71.355469 C 46.328125 70.226562 46.835938 69.027344 47.289062 67.804688 C 47.6875 66.734375 48.355469 65.878906 49.179688 65.121094 C 49.207031 65.097656 49.238281 65.078125 49.316406 65.015625 C 49.289062 65.328125 49.265625 65.589844 49.238281 65.855469 C 49.238281 65.882812 49.207031 65.910156 49.183594 65.933594 C 48.363281 66.664062 47.859375 67.589844 47.496094 68.609375 C 46.949219 70.136719 46.183594 71.542969 45.109375 72.765625 C 44.480469 73.480469 43.765625 74.085938 42.871094 74.441406 C 42.117188 74.738281 41.34375 74.894531 40.535156 74.722656 C 39.574219 74.523438 38.9375 73.90625 38.496094 73.070312 C 38.359375 72.816406 38.257812 72.550781 38.144531 72.289062 C 38.160156 72.28125 38.179688 72.269531 38.195312 72.261719 C 38.238281 72.324219 38.28125 72.386719 38.324219 72.453125 Z M 39.816406 72.605469 C 40.238281 72.722656 40.660156 72.578125 41.066406 72.441406 C 41.953125 72.144531 42.621094 71.554688 43.203125 70.847656 C 43.78125 70.140625 44.226562 69.351562 44.59375 68.519531 C 45.292969 66.941406 46.316406 65.589844 47.496094 64.347656 C 47.851562 63.972656 48.21875 63.617188 48.582031 63.25 C 48.621094 63.214844 48.664062 63.175781 48.707031 63.136719 C 48.800781 63.195312 48.890625 63.253906 48.992188 63.320312 C 48.664062 63.679688 48.347656 64.035156 48.03125 64.386719 C 47.3125 65.1875 46.585938 65.984375 46.070312 66.933594 C 45.707031 67.605469 45.40625 68.316406 45.078125 69.007812 C 44.636719 69.933594 44.160156 70.835938 43.453125 71.597656 C 42.574219 72.546875 41.492188 73.050781 40.195312 73.0625 C 39.859375 73.066406 39.542969 72.980469 39.25 72.773438 C 39.429688 72.65625 39.5625 72.535156 39.816406 72.605469 Z M 39.125 72.859375 C 39.605469 73.207031 40.152344 73.242188 40.710938 73.171875 C 42.195312 72.980469 43.292969 72.179688 44.128906 70.972656 C 44.675781 70.1875 45.113281 69.34375 45.464844 68.460938 C 46.082031 66.925781 47.050781 65.636719 48.164062 64.4375 C 48.449219 64.128906 48.726562 63.816406 49.007812 63.5 C 49.039062 63.464844 49.066406 63.421875 49.097656 63.386719 C 49.246094 63.519531 49.269531 63.839844 49.160156 63.964844 C 48.683594 64.515625 48.203125 65.066406 47.730469 65.625 C 47.0625 66.414062 46.628906 67.339844 46.207031 68.273438 C 45.828125 69.121094 45.453125 69.96875 45.03125 70.792969 C 44.628906 71.578125 44.078125 72.269531 43.332031 72.757812 C 42.113281 73.554688 40.804688 73.726562 39.429688 73.191406 C 39.242188 73.121094 39.078125 72.980469 38.902344 72.875 C 38.914062 72.851562 38.921875 72.832031 38.933594 72.808594 C 38.996094 72.824219 39.074219 72.824219 39.125 72.859375 Z M 44.027344 72.363281 C 44.710938 71.671875 45.203125 70.863281 45.605469 69.988281 C 45.894531 69.355469 46.175781 68.71875 46.441406 68.074219 C 46.953125 66.835938 47.714844 65.765625 48.609375 64.785156 C 48.820312 64.554688 49.023438 64.324219 49.226562 64.09375 C 49.242188 64.09375 49.257812 64.097656 49.273438 64.101562 C 49.285156 64.28125 49.285156 64.464844 49.300781 64.644531 C 49.3125 64.777344 49.269531 64.863281 49.167969 64.953125 C 48.273438 65.746094 47.546875 66.652344 47.148438 67.800781 C 46.972656 68.3125 46.75 68.808594 46.535156 69.304688 C 46.078125 70.355469 45.578125 71.382812 44.875 72.296875 C 44.339844 72.996094 43.71875 73.59375 42.894531 73.941406 C 41.589844 74.492188 40.152344 74.332031 39.09375 73.234375 C 39.070312 73.210938 39.046875 73.183594 39.027344 73.160156 C 40.316406 73.945312 42.625 73.789062 44.027344 72.363281 Z M 55.84375 46.722656 C 57.558594 48.085938 59.265625 49.441406 60.984375 50.808594 C 60.941406 50.863281 60.898438 50.914062 60.859375 50.964844 C 58.871094 53.257812 56.847656 55.519531 54.742188 57.710938 C 53.386719 59.125 52.003906 60.511719 50.628906 61.902344 C 50.230469 62.304688 49.8125 62.683594 49.410156 63.078125 C 49.328125 63.15625 49.265625 63.175781 49.160156 63.105469 C 48.488281 62.679688 47.808594 62.261719 47.117188 61.828125 C 49.746094 56.625 52.6875 51.621094 55.84375 46.722656 Z M 60.117188 49.777344 C 63.152344 45.515625 66.179688 41.265625 69.207031 37.015625 C 69.191406 37.007812 69.179688 37 69.167969 36.992188 C 66.042969 41.164062 62.921875 45.332031 59.789062 49.515625 C 58.535156 48.519531 57.269531 47.511719 55.988281 46.496094 C 56.226562 46.128906 56.460938 45.769531 56.695312 45.410156 C 60.652344 39.371094 64.898438 33.535156 69.34375 27.847656 C 72.6875 23.570312 76.148438 19.382812 79.707031 15.277344 C 82.257812 12.339844 84.859375 9.441406 87.535156 6.613281 C 87.746094 6.386719 87.964844 6.167969 88.175781 5.941406 C 88.289062 5.824219 88.425781 5.785156 88.585938 5.820312 C 89.078125 5.933594 89.449219 6.21875 89.710938 6.652344 C 89.800781 6.800781 89.789062 6.945312 89.714844 7.109375 C 88.304688 10.15625 86.792969 13.152344 85.195312 16.109375 C 82.566406 20.957031 79.707031 25.664062 76.648438 30.253906 C 73.433594 35.078125 70.023438 39.761719 66.394531 44.285156 C 64.726562 46.363281 63 48.394531 61.300781 50.449219 C 61.261719 50.5 61.214844 50.546875 61.160156 50.605469 C 60.8125 50.328125 60.472656 50.058594 60.117188 49.777344 Z M 90.058594 6.800781 C 89.820312 6.132812 89.328125 5.746094 88.660156 5.558594 C 88.648438 5.554688 88.640625 5.546875 88.632812 5.539062 C 88.53125 5.539062 88.433594 5.539062 88.335938 5.539062 C 88.171875 5.65625 88.007812 5.773438 87.847656 5.898438 C 87.777344 5.953125 87.71875 6.03125 87.652344 6.097656 C 85.269531 8.605469 82.953125 11.167969 80.671875 13.765625 C 76.523438 18.492188 72.511719 23.335938 68.648438 28.300781 C 64.53125 33.597656 60.585938 39.023438 56.890625 44.625 C 53.261719 50.128906 49.878906 55.777344 46.898438 61.660156 C 46.863281 61.726562 46.777344 61.78125 46.703125 61.808594 C 46.519531 61.871094 46.324219 61.898438 46.144531 61.964844 C 45.167969 62.339844 44.359375 62.949219 43.695312 63.753906 C 42.878906 64.742188 42.304688 65.867188 41.863281 67.058594 C 41.535156 67.9375 41.269531 68.839844 40.957031 69.722656 C 40.652344 70.601562 40.257812 71.433594 39.617188 72.125 C 39.484375 72.269531 39.324219 72.394531 39.15625 72.496094 C 38.984375 72.601562 38.816406 72.570312 38.691406 72.421875 C 38.472656 72.152344 38.257812 71.878906 38.066406 71.589844 C 37.910156 71.359375 37.84375 71.09375 37.859375 70.816406 C 37.871094 70.640625 37.886719 70.464844 37.894531 70.285156 C 37.902344 70.191406 37.9375 70.070312 37.792969 70.050781 C 37.664062 70.03125 37.648438 70.140625 37.625 70.234375 C 37.597656 70.363281 37.5625 70.492188 37.539062 70.621094 C 37.480469 71.011719 37.425781 71.40625 37.371094 71.800781 C 37.371094 72.042969 37.371094 72.285156 37.371094 72.53125 C 37.382812 72.609375 37.398438 72.691406 37.40625 72.773438 C 37.472656 73.308594 37.628906 73.808594 37.972656 74.238281 C 38.964844 75.476562 40.589844 75.84375 42.054688 75.148438 C 42.105469 75.125 42.15625 75.105469 42.179688 75.09375 C 42.179688 75.1875 42.179688 75.265625 42.179688 75.347656 C 42.261719 75.339844 42.339844 75.332031 42.421875 75.324219 C 42.441406 75.320312 42.457031 75.304688 42.476562 75.289062 C 43.832031 74.449219 45.0625 73.449219 46.164062 72.296875 C 47.183594 71.230469 48.054688 70.058594 48.679688 68.71875 C 49.441406 67.082031 49.742188 65.375 49.476562 63.585938 C 49.457031 63.449219 49.488281 63.367188 49.585938 63.273438 C 50.703125 62.179688 51.828125 61.089844 52.929688 59.976562 C 54.949219 57.945312 56.894531 55.839844 58.804688 53.703125 C 61.761719 50.398438 64.613281 47 67.355469 43.511719 C 71.230469 38.589844 74.878906 33.507812 78.285156 28.25 C 81.714844 22.953125 84.878906 17.503906 87.710938 11.859375 C 88.519531 10.253906 89.277344 8.621094 90.058594 7 C 90.058594 6.933594 90.058594 6.867188 90.058594 6.800781 Z M 59.394531 52.609375 L 55.105469 49.632812 L 55.242188 49.355469 L 59.808594 52.261719 L 59.394531 52.609375 "/>
</g>
<path style=" stroke:none;fill-rule:nonzero;fill:rgb(65.882353%,88.235294%,82.352941%);fill-opacity:1;" d="M 52.964844 54.40625 C 53.410156 54.40625 53.410156 53.714844 52.964844 53.714844 C 52.515625 53.714844 52.515625 54.40625 52.964844 54.40625 "/>
<path style=" stroke:none;fill-rule:nonzero;fill:rgb(65.882353%,88.235294%,82.352941%);fill-opacity:1;" d="M 52.410156 56.480469 C 52.855469 56.480469 52.855469 55.789062 52.410156 55.789062 C 51.964844 55.789062 51.964844 56.480469 52.410156 56.480469 "/>
<path style=" stroke:none;fill-rule:nonzero;fill:rgb(65.882353%,88.235294%,82.352941%);fill-opacity:1;" d="M 51.027344 57.726562 C 51.472656 57.726562 51.472656 57.035156 51.027344 57.035156 C 50.578125 57.035156 50.578125 57.726562 51.027344 57.726562 "/>
<path style=" stroke:none;fill-rule:nonzero;fill:rgb(65.882353%,88.235294%,82.352941%);fill-opacity:1;" d="M 51.996094 58.695312 C 52.441406 58.695312 52.441406 58.003906 51.996094 58.003906 C 51.546875 58.003906 51.546875 58.695312 51.996094 58.695312 "/>
<path style=" stroke:none;fill-rule:nonzero;fill:rgb(65.882353%,88.235294%,82.352941%);fill-opacity:1;" d="M 50.335938 59.523438 C 50.78125 59.523438 50.78125 58.832031 50.335938 58.832031 C 49.886719 58.832031 49.886719 59.523438 50.335938 59.523438 "/>
<path style=" stroke:none;fill-rule:nonzero;fill:rgb(65.882353%,88.235294%,82.352941%);fill-opacity:1;" d="M 49.503906 62.152344 C 49.949219 62.152344 49.949219 61.460938 49.503906 61.460938 C 49.058594 61.460938 49.058594 62.152344 49.503906 62.152344 "/>
<path style=" stroke:none;fill-rule:nonzero;fill:rgb(65.882353%,88.235294%,82.352941%);fill-opacity:1;" d="M 51.300781 60.90625 C 51.75 60.90625 51.75 60.214844 51.300781 60.214844 C 50.855469 60.214844 50.855469 60.90625 51.300781 60.90625 "/>
<path style=" stroke:none;fill-rule:nonzero;fill:rgb(65.882353%,88.235294%,82.352941%);fill-opacity:1;" d="M 52.964844 52.882812 C 53.410156 52.882812 53.410156 52.191406 52.964844 52.191406 C 52.515625 52.191406 52.515625 52.882812 52.964844 52.882812 "/>
<path style=" stroke:none;fill-rule:nonzero;fill:rgb(65.882353%,88.235294%,82.352941%);fill-opacity:1;" d="M 51.441406 55.652344 C 51.886719 55.652344 51.886719 54.960938 51.441406 54.960938 C 50.996094 54.960938 50.996094 55.652344 51.441406 55.652344 "/>
</g>
</svg>
